<?xml version="1.0" encoding="UTF-8"?>
<!-- Generator: visioncortex VTracer 0.6.4 -->
<svg version="1.1" xmlns="http://www.w3.org/2000/svg" width="1374" height="1145" viewBox="0 0 1374 1145">
<path d="M0 0 C1.2 -0 2.39 -0.01 3.62 -0.01 C5.58 -0.01 5.58 -0.01 7.57 -0.01 C8.97 -0.01 10.36 -0.02 11.75 -0.02 C15.53 -0.03 19.31 -0.03 23.09 -0.03 C25.46 -0.03 27.82 -0.04 30.18 -0.04 C38.44 -0.05 46.7 -0.05 54.96 -0.05 C62.64 -0.05 70.32 -0.06 78.01 -0.08 C84.61 -0.09 91.22 -0.1 97.83 -0.1 C101.77 -0.09 105.71 -0.1 109.65 -0.11 C113.36 -0.12 117.07 -0.12 120.78 -0.11 C122.78 -0.11 124.78 -0.12 126.77 -0.13 C137.15 -0.09 145.94 1.02 155.16 5.88 C155.85 6.24 156.54 6.59 157.24 6.95 C169.72 13.5 169.72 13.5 172.04 18.13 C173.21 18.78 173.21 18.78 174.41 19.45 C177.37 21.35 178.36 23.1 180.04 26.13 C180.7 26.46 181.36 26.79 182.04 27.13 C182.37 28.12 182.7 29.11 183.04 30.13 C184.66 31.84 186.33 33.51 188.04 35.13 C187.71 35.79 187.38 36.45 187.04 37.13 C187.97 39.17 188.97 41.17 190.04 43.13 C190.7 43.13 191.36 43.13 192.04 43.13 C194.17 47.65 194.17 47.65 193.54 49.99 C192.91 52.68 193.36 54.42 193.95 57.11 C195.58 66.2 195.37 75.32 195.42 84.53 C195.43 86.49 195.45 88.45 195.47 90.41 C195.51 95.54 195.55 100.68 195.58 105.81 C195.63 114.04 195.7 122.26 195.77 130.49 C195.79 133.35 195.81 136.22 195.82 139.08 C195.84 140.84 195.85 142.6 195.86 144.36 C195.87 145.54 195.87 145.54 195.87 146.75 C195.91 151.31 196.29 155.64 197.04 160.13 C196.88 159.02 196.72 157.9 196.55 156.75 C195.95 151.93 195.86 147.17 195.83 142.32 C195.82 141.37 195.81 140.43 195.8 139.45 C195.77 136.35 195.75 133.24 195.72 130.13 C195.7 127.97 195.68 125.81 195.66 123.64 C195.6 117.97 195.55 112.29 195.5 106.62 C195.45 100.82 195.4 95.02 195.34 89.22 C195.24 77.86 195.13 66.5 195.04 55.13 C195.37 55.13 195.7 55.13 196.04 55.13 C197.16 59.63 197.18 64.05 197.18 68.66 C197.18 69.93 197.18 69.93 197.19 71.23 C197.2 73.07 197.2 74.91 197.21 76.75 C197.21 79.69 197.23 82.63 197.25 85.57 C197.3 93.93 197.35 102.28 197.36 110.64 C197.46 155.44 200.28 199.12 233.63 232.86 C236.74 235.9 239.99 238.7 243.34 241.46 C245.14 243.24 245.92 244.89 247.04 247.13 C249.71 248.68 252.37 249.88 255.26 250.98 C258.85 252.47 262.27 254.24 265.72 256.01 C271.72 259.04 277.69 261.9 284.04 264.13 C284.83 264.42 285.63 264.71 286.44 265 C292.15 266.9 297.57 267.6 303.57 267.92 C306.04 268.13 306.04 268.13 308.04 269.13 C311.02 269.28 313.98 269.37 316.96 269.41 C318.31 269.44 318.31 269.44 319.69 269.47 C322.57 269.53 325.46 269.58 328.35 269.63 C361.35 270.23 361.35 270.23 370.22 272.95 C371.38 273.3 372.53 273.65 373.71 274.01 C378.23 275.54 382.66 277.24 387.04 279.13 C387.04 279.79 387.04 280.45 387.04 281.13 C387.99 281.2 388.93 281.26 389.91 281.32 C399.29 282.72 407.22 288.89 414.04 295.13 C414.37 295.79 414.7 296.45 415.04 297.13 C415.68 297.42 416.32 297.71 416.97 298.01 C419.04 299.13 419.04 299.13 419.97 301.02 C421.12 303.3 422.21 304.4 424.16 306.01 C424.78 306.52 425.39 307.02 426.03 307.54 C431.76 312.26 431.76 312.26 438.04 316.13 C438.83 317.74 438.83 317.74 439.66 319.88 C442.61 326.83 446.67 334.77 452.04 340.13 C452.75 341.98 452.75 341.98 453.41 344.2 C454.61 348.18 456.23 351.87 457.94 355.65 C459.83 359.91 461.55 364.24 463.29 368.57 C463.83 369.92 463.83 369.92 464.39 371.29 C464.9 372.57 464.9 372.57 465.43 373.88 C465.74 374.65 466.05 375.42 466.37 376.21 C467.04 378.13 467.04 378.13 467.04 380.13 C467.7 380.46 468.36 380.79 469.04 381.13 C469.6 383.38 469.6 383.38 470.04 386.13 C470.37 387.82 470.7 389.51 471.04 391.2 C471.2 392.03 471.37 392.87 471.54 393.73 C471.98 395.88 472.49 398.01 473.04 400.13 C474.03 400.13 475.02 400.13 476.04 400.13 C477.84 404.1 478.53 407.82 479.04 412.13 C479.7 412.13 480.36 412.13 481.04 412.13 C481.55 413.16 482.05 414.19 482.58 415.25 C484.38 418.88 486.2 422.5 488.03 426.12 C488.85 427.75 489.63 429.4 490.41 431.05 C494.75 439.79 501.22 446.94 507.51 454.32 C510.07 457.36 512.54 460.46 514.89 463.66 C517.39 466.55 520.19 468.6 523.35 470.7 C523.93 471.09 524.51 471.48 525.11 471.88 C526.74 472.97 528.39 474.05 530.04 475.13 C530.75 475.61 531.46 476.08 532.2 476.57 C536.09 478.99 539.51 479.71 544.04 480.13 C545.71 480.45 547.37 480.78 549.04 481.13 C549.04 482.12 549.04 483.11 549.04 484.13 C564.9 490.4 579.92 492.28 596.83 492.29 C598.42 492.3 600.02 492.3 601.62 492.31 C605.05 492.32 608.49 492.33 611.92 492.33 C617.35 492.34 622.79 492.36 628.22 492.39 C643.68 492.45 659.13 492.5 674.58 492.54 C683.12 492.55 691.66 492.58 700.21 492.62 C704.72 492.64 709.23 492.66 713.75 492.66 C717.99 492.66 722.24 492.68 726.49 492.71 C728.04 492.71 729.59 492.72 731.14 492.71 C743.96 492.69 754.29 495.15 766.04 500.13 C766.74 500.41 767.45 500.7 768.18 500.99 C772.92 502.9 772.92 502.9 774.04 505.13 C775.7 506.8 777.37 508.47 779.04 510.13 C780.58 511.95 782.1 513.78 783.6 515.63 C784.34 516.55 785.09 517.47 785.85 518.41 C787.31 520.23 788.76 522.06 790.21 523.9 C791.88 526.13 791.88 526.13 793.79 527.45 C795.94 530.36 795.21 533.61 795.04 537.13 C795.7 536.8 796.36 536.47 797.04 536.13 C797.38 537.55 797.71 538.97 798.04 540.38 C798.22 541.17 798.41 541.96 798.6 542.77 C799.04 545.13 799.04 545.13 799.04 549.13 C799.7 549.46 800.36 549.79 801.04 550.13 C801.37 550.46 801.7 550.79 802.04 551.13 C801.33 555.84 801.33 555.84 800.04 557.13 C799.94 558.8 799.91 560.46 799.91 562.13 C799.9 563.21 799.9 564.29 799.89 565.4 C799.89 567.2 799.89 567.2 799.9 569.03 C799.89 570.96 799.88 572.88 799.88 574.81 C799.87 576.89 799.87 578.96 799.87 581.04 C799.86 585.38 799.85 589.72 799.83 594.06 C799.82 595.55 799.81 597.03 799.81 598.52 C799.81 599.26 799.8 600.01 799.8 600.78 C799.76 610.88 799.72 620.98 799.71 631.09 C799.7 637.9 799.68 644.71 799.64 651.52 C799.62 655.12 799.61 658.72 799.61 662.32 C799.65 696.84 799.65 696.84 790.79 711.57 C790.4 712.24 790.01 712.9 789.61 713.58 C782.1 726.06 782.1 726.06 775.86 727.71 C775.26 727.85 774.66 727.99 774.04 728.13 C773.75 728.73 773.46 729.33 773.16 729.95 C771.49 733.2 769.2 734.4 766.04 736.13 C763.16 736.38 763.16 736.38 761.04 736.13 C761.04 736.79 761.04 737.45 761.04 738.13 C749.82 742.27 740.02 743.86 728.11 743.76 C726.49 743.77 724.86 743.78 723.24 743.79 C718.88 743.8 714.52 743.79 710.15 743.77 C705.56 743.76 700.97 743.76 696.37 743.77 C688.66 743.77 680.96 743.76 673.25 743.73 C664.37 743.7 655.49 743.7 646.62 743.72 C638.03 743.73 629.44 743.72 620.86 743.71 C617.22 743.7 613.59 743.7 609.96 743.71 C605.67 743.72 601.38 743.7 597.1 743.68 C595.54 743.67 593.97 743.67 592.41 743.68 C578.04 743.74 562.11 741.68 551.16 731.45 C550.11 730.3 550.11 730.3 549.04 729.13 C548.43 728.85 547.82 728.56 547.2 728.26 C544.43 726.82 542.56 724.96 540.35 722.76 C539.56 721.99 538.77 721.22 537.96 720.42 C536.09 718.2 535.42 716.97 535.04 714.13 C534.38 714.13 533.72 714.13 533.04 714.13 C529.02 706.4 525.13 698.62 523.04 690.13 C522.71 689.47 522.38 688.81 522.04 688.13 C521.95 686.52 521.93 684.89 521.94 683.27 C521.94 682.26 521.95 681.25 521.95 680.21 C521.96 679.11 521.97 678.02 521.97 676.89 C521.98 675.77 521.98 674.64 521.99 673.49 C522 668.67 522.03 663.86 522.06 659.04 C522.08 655.53 522.09 652.02 522.1 648.51 C522.11 647.42 522.12 646.33 522.12 645.2 C522.13 644.18 522.13 643.17 522.13 642.12 C522.14 641.23 522.15 640.34 522.15 639.42 C522.13 636.97 522.13 636.97 521.04 634.13 C520.95 632.62 520.91 631.09 520.91 629.57 C520.91 628.79 520.91 628 520.9 627.19 C521.04 625.13 521.04 625.13 522.04 623.13 C522.16 604.56 517.34 583.26 508.04 567.13 C507.53 566.64 507.02 566.14 506.49 565.63 C504.38 563.46 503.87 561 503.04 558.13 C502.38 558.13 501.72 558.13 501.04 558.13 C501.04 557.47 501.04 556.81 501.04 556.13 C500.05 555.8 499.06 555.47 498.04 555.13 C497.71 553.48 497.38 551.83 497.04 550.13 C494.4 549.47 491.76 548.81 489.04 548.13 C488.94 547.15 488.84 546.16 488.74 545.14 C488.59 543.86 488.44 542.58 488.29 541.26 C488.15 539.98 488.01 538.71 487.87 537.39 C487.41 534.06 487.41 534.06 485.05 532.84 C484.39 532.61 483.72 532.38 483.04 532.13 C482.56 531.31 482.09 530.48 481.6 529.63 C480.28 526.97 480.28 526.97 477.74 526.22 C474.68 524.99 472.73 523.4 470.22 521.26 C466 517.78 462.02 515.36 457.04 513.13 C456.38 512.8 455.72 512.47 455.04 512.13 C455.04 511.47 455.04 510.81 455.04 510.13 C454.19 509.87 453.34 509.61 452.47 509.34 C448.86 508.07 445.58 506.47 442.16 504.76 C434.29 500.99 426.57 498.91 418.04 497.13 C416.76 496.86 415.49 496.59 414.17 496.31 C398.84 493.33 383.39 493.9 367.85 494.13 C335.54 494.62 335.54 494.62 324.14 491.76 C319.05 490.73 314.13 491.33 309.04 492.13 C307.04 489.13 307.04 489.13 307.04 487.13 C305.3 486.23 305.3 486.23 303.53 485.31 C301.99 484.5 300.45 483.69 298.91 482.88 C298.15 482.49 297.39 482.09 296.61 481.68 C292.23 479.38 288.09 476.96 284.04 474.13 C284.04 474.79 284.04 475.45 284.04 476.13 C281.03 477.07 280.17 477.18 277.04 476.13 C276.95 475.08 276.87 474.03 276.79 472.95 C275.74 467.61 272.88 464.78 269.04 461.13 C268.38 461.46 267.72 461.79 267.04 462.13 C266.6 460.93 266.6 460.93 266.16 459.7 C265.3 457 265.3 457 263.04 456.13 C262.91 455.16 262.79 454.19 262.66 453.2 C262.46 452.19 262.25 451.17 262.04 450.13 C260.19 449.08 260.19 449.08 258.04 448.13 C255.25 444.55 253.57 441.66 253.04 437.13 C252.38 437.13 251.72 437.13 251.04 437.13 C250.71 435.48 250.38 433.83 250.04 432.13 C249.05 431.8 248.06 431.47 247.04 431.13 C247.04 430.47 247.04 429.81 247.04 429.13 C246.38 428.8 245.72 428.47 245.04 428.13 C244.23 426.37 244.23 426.37 243.45 424.08 C243.02 422.83 243.02 422.83 242.58 421.54 C242.27 420.65 241.97 419.75 241.66 418.82 C241.35 417.91 241.04 416.99 240.72 416.05 C240.1 414.23 239.48 412.41 238.86 410.58 C238.2 408.61 237.52 406.63 236.83 404.66 C235.4 400.52 234.08 396.4 233.05 392.15 C232.88 391.46 232.71 390.77 232.54 390.07 C232.06 388.11 231.61 386.15 231.16 384.19 C230.34 381.04 230.34 381.04 227.91 379.7 C227.29 379.52 226.67 379.33 226.04 379.13 C226.04 376.49 226.04 373.85 226.04 371.13 C226.7 371.13 227.36 371.13 228.04 371.13 C227.72 370.2 227.72 370.2 227.39 369.25 C226.44 366.44 225.49 363.63 224.54 360.82 C224.2 359.84 223.87 358.87 223.53 357.86 C223.21 356.92 222.89 355.99 222.57 355.02 C222.13 353.72 222.13 353.72 221.68 352.4 C221.04 350.13 221.04 350.13 221.04 347.13 C220.05 346.8 219.06 346.47 218.04 346.13 C218.04 345.14 218.04 344.15 218.04 343.13 C217.1 341.04 216.09 338.98 215.04 336.95 C214.2 335.32 214.2 335.32 213.35 333.65 C212.92 332.82 212.48 331.99 212.04 331.13 C211.38 331.13 210.72 331.13 210.04 331.13 C209.71 330.14 209.38 329.15 209.04 328.13 C208.71 327.47 208.38 326.81 208.04 326.13 C206.14 325.67 206.14 325.67 203.97 325.51 C202.68 325.38 201.38 325.26 200.04 325.13 C200.04 324.14 200.04 323.15 200.04 322.13 C199.05 321.8 198.06 321.47 197.04 321.13 C194.62 316.58 193.65 313.37 194.04 308.13 C192.72 307.8 191.4 307.47 190.04 307.13 C189.79 306.08 189.54 305.03 189.29 303.95 C188.23 300.28 186.65 297.97 184.04 295.13 C183.34 294.35 182.63 293.57 181.91 292.76 C176.98 288.26 171.58 283.5 164.97 281.88 C164.01 281.64 163.04 281.39 162.04 281.13 C161.71 280.14 161.38 279.15 161.04 278.13 C159.05 276.93 159.05 276.93 156.66 276.01 C155.87 275.68 155.08 275.34 154.26 275 C152.54 274.33 150.79 273.72 149.04 273.13 C146.85 274.51 146.85 274.51 145.04 276.13 C144.71 275.47 144.38 274.81 144.04 274.13 C143.38 273.8 142.72 273.47 142.04 273.13 C142.04 272.47 142.04 271.81 142.04 271.13 C138.82 268.99 136.47 268.36 132.72 267.51 C131.61 267.25 130.5 266.99 129.36 266.72 C126.16 266.16 123.28 265.95 120.04 266.13 C119.71 266.46 119.38 266.79 119.04 267.13 C118.05 267.79 117.06 268.45 116.04 269.13 C116.04 270.12 116.04 271.11 116.04 272.13 C114.72 272.79 113.4 273.45 112.04 274.13 C112.04 275.12 112.04 276.11 112.04 277.13 C107.54 279.08 104.74 279.4 100.04 278.13 C98.45 277.77 96.87 277.42 95.29 277.07 C94.49 276.89 93.69 276.72 92.87 276.54 C92.26 276.4 91.66 276.27 91.04 276.13 C91.04 274.81 91.04 273.49 91.04 272.13 C90.38 272.13 89.72 272.13 89.04 272.13 C89.04 271.14 89.04 270.15 89.04 269.13 C88.05 268.47 87.06 267.81 86.04 267.13 C89.57 265.01 92.98 264.6 97.04 264.13 C93.72 262.71 90.59 261.74 87.04 261.13 C87.04 261.79 87.04 262.45 87.04 263.13 C79.61 265.56 79.61 265.56 76.04 264.13 C76.04 263.47 76.04 262.81 76.04 262.13 C75.26 262.14 74.48 262.14 73.68 262.14 C66.24 262.16 58.8 262.18 51.36 262.19 C47.54 262.19 43.72 262.2 39.9 262.21 C10.68 262.29 10.68 262.29 -3.05 261.69 C-3.96 261.65 -4.87 261.61 -5.8 261.57 C-11.83 261.26 -11.83 261.26 -12.96 260.13 C-14.12 260.03 -15.27 259.93 -16.46 259.82 C-21.48 259.23 -25.49 257.39 -29.96 255.13 C-30.84 254.71 -31.72 254.29 -32.63 253.85 C-38.79 250.73 -43.68 247.04 -48.67 242.28 C-50.98 240.05 -50.98 240.05 -53.75 237.99 C-54.85 237.07 -54.85 237.07 -55.96 236.13 C-55.96 235.47 -55.96 234.81 -55.96 234.13 C-56.95 234.46 -57.94 234.79 -58.96 235.13 C-59.37 233.59 -59.37 233.59 -59.78 232.01 C-60.51 229.4 -61.33 227.41 -62.59 224.95 C-63.96 222.13 -63.96 222.13 -63.96 218.13 C-64.95 217.8 -65.94 217.47 -66.96 217.13 C-67.35 215.82 -67.67 214.48 -67.96 213.13 C-68.93 211.12 -69.93 209.12 -70.96 207.13 C-70.3 206.14 -69.64 205.15 -68.96 204.13 C-68.68 201.49 -68.68 201.49 -68.75 198.46 C-68.75 197.28 -68.76 196.09 -68.76 194.87 C-68.77 193.57 -68.79 192.28 -68.8 190.94 C-68.81 189.55 -68.81 188.17 -68.82 186.79 C-68.83 183.81 -68.85 180.83 -68.87 177.85 C-68.91 173.13 -68.93 168.4 -68.95 163.67 C-68.99 150.23 -69.06 136.79 -69.15 123.35 C-69.2 115.93 -69.24 108.5 -69.26 101.08 C-69.27 97.16 -69.29 93.24 -69.32 89.32 C-69.56 63.74 -68.84 41.86 -50.2 22.32 C-37.88 10.27 -37.88 10.27 -29.96 9.13 C-29.63 8.14 -29.3 7.15 -28.96 6.13 C-25.99 4.51 -23.22 3.99 -19.9 3.63 C-16.61 3.22 -14.71 2.85 -11.96 1.13 C-11.47 1.63 -11.47 1.63 -10.96 2.13 C-10.96 1.8 -10.96 1.47 -10.96 1.13 C-7.25 0.27 -3.81 0.01 0 0 Z M136.04 2.13 C136.04 2.46 136.04 2.79 136.04 3.13 C137.69 3.13 139.34 3.13 141.04 3.13 C141.04 2.8 141.04 2.47 141.04 2.13 C139.39 2.13 137.74 2.13 136.04 2.13 Z M-62.96 43.13 C-61.96 45.13 -61.96 45.13 -61.96 45.13 Z M-63.96 45.13 C-62.96 48.13 -62.96 48.13 -62.96 48.13 Z M191.04 47.13 C192.04 49.13 192.04 49.13 192.04 49.13 Z M-64.96 48.13 C-63.96 52.13 -63.96 52.13 -63.96 52.13 Z M-65.96 52.13 C-65.96 53.78 -65.96 55.43 -65.96 57.13 C-65.63 57.13 -65.3 57.13 -64.96 57.13 C-64.96 55.48 -64.96 53.83 -64.96 52.13 C-65.29 52.13 -65.62 52.13 -65.96 52.13 Z M-66.96 57.13 C-66.96 60.1 -66.96 63.07 -66.96 66.13 C-66.63 66.13 -66.3 66.13 -65.96 66.13 C-65.96 63.16 -65.96 60.19 -65.96 57.13 C-66.29 57.13 -66.62 57.13 -66.96 57.13 Z M-66.96 81.13 C-67.46 88.56 -67.46 88.56 -67.96 96.13 C-67.3 96.13 -66.64 96.13 -65.96 96.13 C-65.96 91.18 -65.96 86.23 -65.96 81.13 C-66.29 81.13 -66.62 81.13 -66.96 81.13 Z M-67.96 97.13 C-67.63 101.75 -67.3 106.37 -66.96 111.13 C-66.63 111.13 -66.3 111.13 -65.96 111.13 C-65.96 106.51 -65.96 101.89 -65.96 97.13 C-66.62 97.13 -67.28 97.13 -67.96 97.13 Z M-66.96 125.13 C-68.17 129.78 -68 134.18 -67.84 138.93 C-67.82 139.77 -67.79 140.61 -67.77 141.47 C-67.69 144.13 -67.61 146.79 -67.53 149.45 C-67.47 151.25 -67.42 153.06 -67.37 154.87 C-67.24 159.29 -67.1 163.71 -66.96 168.13 C-66.63 168.13 -66.3 168.13 -65.96 168.13 C-65.96 153.94 -65.96 139.75 -65.96 125.13 C-66.29 125.13 -66.62 125.13 -66.96 125.13 Z M199.04 172.13 C200.04 174.13 200.04 174.13 200.04 174.13 Z M200.04 176.13 C201.04 179.13 201.04 179.13 201.04 179.13 Z M-66.96 180.13 C-66.96 188.71 -66.96 197.29 -66.96 206.13 C-66.63 206.13 -66.3 206.13 -65.96 206.13 C-65.96 197.55 -65.96 188.97 -65.96 180.13 C-66.29 180.13 -66.62 180.13 -66.96 180.13 Z M201.04 180.13 C202.04 182.13 202.04 182.13 202.04 182.13 Z M202.04 182.13 C203.04 185.13 203.04 185.13 203.04 185.13 Z M203.04 186.13 C204.04 188.13 204.04 188.13 204.04 188.13 Z M204.04 189.13 C205.04 191.13 205.04 191.13 205.04 191.13 Z M205.04 192.13 C206.04 194.13 206.04 194.13 206.04 194.13 Z M-65.96 207.13 C-64.96 211.13 -64.96 211.13 -64.96 211.13 Z M213.04 208.13 C214.04 210.13 214.04 210.13 214.04 210.13 Z M-64.96 212.13 C-63.96 215.13 -63.96 215.13 -63.96 215.13 Z M-62.96 218.13 C-61.96 220.13 -61.96 220.13 -61.96 220.13 Z M-4.96 259.13 C-4.96 259.46 -4.96 259.79 -4.96 260.13 C-3.31 260.13 -1.66 260.13 0.04 260.13 C0.04 259.8 0.04 259.47 0.04 259.13 C-1.61 259.13 -3.26 259.13 -4.96 259.13 Z M8.04 259.13 C8.04 259.46 8.04 259.79 8.04 260.13 C11.34 260.13 14.64 260.13 18.04 260.13 C18.04 259.8 18.04 259.47 18.04 259.13 C14.74 259.13 11.44 259.13 8.04 259.13 Z M23.04 259.13 C27.04 260.13 27.04 260.13 27.04 260.13 Z M46.04 259.13 C46.04 259.46 46.04 259.79 46.04 260.13 C60.56 260.13 75.08 260.13 90.04 260.13 C90.04 259.8 90.04 259.47 90.04 259.13 C75.52 259.13 61 259.13 46.04 259.13 Z M103.04 260.13 C103.04 260.46 103.04 260.79 103.04 261.13 C105.02 261.13 107 261.13 109.04 261.13 C109.04 260.8 109.04 260.47 109.04 260.13 C107.06 260.13 105.08 260.13 103.04 260.13 Z M114.04 263.13 C113.71 263.79 113.38 264.45 113.04 265.13 C114.03 264.8 115.02 264.47 116.04 264.13 C115.38 263.8 114.72 263.47 114.04 263.13 Z M326.04 272.13 C326.04 272.46 326.04 272.79 326.04 273.13 C328.68 273.13 331.32 273.13 334.04 273.13 C334.04 272.8 334.04 272.47 334.04 272.13 C331.4 272.13 328.76 272.13 326.04 272.13 Z M347.04 272.13 C347.04 272.46 347.04 272.79 347.04 273.13 C349.02 273.13 351 273.13 353.04 273.13 C353.04 272.8 353.04 272.47 353.04 272.13 C351.06 272.13 349.08 272.13 347.04 272.13 Z M358.04 273.13 C358.04 273.46 358.04 273.79 358.04 274.13 C359.69 274.13 361.34 274.13 363.04 274.13 C363.04 273.8 363.04 273.47 363.04 273.13 C361.39 273.13 359.74 273.13 358.04 273.13 Z M222.04 347.13 C223.04 349.13 223.04 349.13 223.04 349.13 Z M225.04 355.13 C226.04 357.13 226.04 357.13 226.04 357.13 Z M226.04 358.13 C227.04 361.13 227.04 361.13 227.04 361.13 Z M457.04 359.13 C458.04 361.13 458.04 361.13 458.04 361.13 Z M227.04 361.13 C228.04 364.13 228.04 364.13 228.04 364.13 Z M228.04 366.13 C229.04 368.13 229.04 368.13 229.04 368.13 Z M229.04 368.13 C230.04 371.13 230.04 371.13 230.04 371.13 Z M230.04 371.13 C231.04 374.13 231.04 374.13 231.04 374.13 Z M231.04 374.13 C232.04 378.13 232.04 378.13 232.04 378.13 Z M232.04 378.13 C233.04 382.13 233.04 382.13 233.04 382.13 Z M233.04 382.13 C234.04 386.13 234.04 386.13 234.04 386.13 Z M234.04 386.13 C234.16 387.39 234.28 388.65 234.41 389.95 C234.48 390.65 234.55 391.36 234.62 392.09 C234.96 394.43 234.96 394.43 237.04 397.13 C236.91 395.88 236.79 394.62 236.66 393.32 C236.59 392.61 236.52 391.91 236.45 391.18 C236.11 388.83 236.11 388.83 234.04 386.13 Z M237.04 397.13 C238.04 400.13 238.04 400.13 238.04 400.13 Z M238.04 400.13 C239.04 404.13 239.04 404.13 239.04 404.13 Z M474.04 401.13 C475.04 403.13 475.04 403.13 475.04 403.13 Z M475.04 403.13 C476.04 405.13 476.04 405.13 476.04 405.13 Z M239.04 404.13 C240.04 407.13 240.04 407.13 240.04 407.13 Z M476.04 406.13 C477.04 408.13 477.04 408.13 477.04 408.13 Z M240.04 407.13 C241.04 410.13 241.04 410.13 241.04 410.13 Z M241.04 411.13 C242.04 413.13 242.04 413.13 242.04 413.13 Z M242.04 413.13 C243.04 415.13 243.04 415.13 243.04 415.13 Z M243.04 416.13 C244.04 418.13 244.04 418.13 244.04 418.13 Z M244.04 419.13 C245.04 421.13 245.04 421.13 245.04 421.13 Z M245.04 421.13 C246.04 423.13 246.04 423.13 246.04 423.13 Z M310.04 490.13 C314.04 491.13 314.04 491.13 314.04 491.13 Z M331.04 491.13 C331.04 491.46 331.04 491.79 331.04 492.13 C333.02 492.13 335 492.13 337.04 492.13 C337.04 491.8 337.04 491.47 337.04 491.13 C335.06 491.13 333.08 491.13 331.04 491.13 Z M371.04 491.13 C371.04 491.46 371.04 491.79 371.04 492.13 C380.28 492.13 389.52 492.13 399.04 492.13 C399.04 491.8 399.04 491.47 399.04 491.13 C389.8 491.13 380.56 491.13 371.04 491.13 Z M339.04 492.13 C339.04 492.46 339.04 492.79 339.04 493.13 C347.62 493.13 356.2 493.13 365.04 493.13 C365.04 492.8 365.04 492.47 365.04 492.13 C356.46 492.13 347.88 492.13 339.04 492.13 Z M403.04 492.13 C403.04 492.46 403.04 492.79 403.04 493.13 C405.02 493.13 407 493.13 409.04 493.13 C409.04 492.8 409.04 492.47 409.04 492.13 C407.06 492.13 405.08 492.13 403.04 492.13 Z M410.04 493.13 C414.04 494.13 414.04 494.13 414.04 494.13 Z M793.04 531.13 C794.04 533.13 794.04 533.13 794.04 533.13 Z M796.04 541.13 C796.04 542.78 796.04 544.43 796.04 546.13 C796.37 546.13 796.7 546.13 797.04 546.13 C797.04 544.48 797.04 542.83 797.04 541.13 C796.71 541.13 796.38 541.13 796.04 541.13 Z M797.04 547.13 C797.04 593.33 797.04 639.53 797.04 687.13 C797.37 687.13 797.7 687.13 798.04 687.13 C798.04 640.93 798.04 594.73 798.04 547.13 C797.71 547.13 797.38 547.13 797.04 547.13 Z M518.04 587.13 C519.04 589.13 519.04 589.13 519.04 589.13 Z M519.04 590.13 C520.04 593.13 520.04 593.13 520.04 593.13 Z M520.04 595.13 C521.04 597.13 521.04 597.13 521.04 597.13 Z M521.04 599.13 C522.04 601.13 522.04 601.13 522.04 601.13 Z M522.04 603.13 C523.04 607.13 523.04 607.13 523.04 607.13 Z M523.04 607.13 C523.04 609.44 523.04 611.75 523.04 614.13 C523.37 614.13 523.7 614.13 524.04 614.13 C524.04 611.82 524.04 609.51 524.04 607.13 C523.71 607.13 523.38 607.13 523.04 607.13 Z M524.04 614.13 C524.04 618.42 524.04 622.71 524.04 627.13 C524.37 627.13 524.7 627.13 525.04 627.13 C525.04 622.84 525.04 618.55 525.04 614.13 C524.71 614.13 524.38 614.13 524.04 614.13 Z M525.04 629.13 C525.04 648.93 525.04 668.73 525.04 689.13 C525.37 689.13 525.7 689.13 526.04 689.13 C526.04 669.33 526.04 649.53 526.04 629.13 C525.71 629.13 525.38 629.13 525.04 629.13 Z M796.04 687.13 C796.04 688.78 796.04 690.43 796.04 692.13 C796.37 692.13 796.7 692.13 797.04 692.13 C797.04 690.48 797.04 688.83 797.04 687.13 C796.71 687.13 796.38 687.13 796.04 687.13 Z M526.04 690.13 C527.04 694.13 527.04 694.13 527.04 694.13 Z M795.04 693.13 C796.04 696.13 796.04 696.13 796.04 696.13 Z M527.04 695.13 C528.04 698.13 528.04 698.13 528.04 698.13 Z M794.04 697.13 C795.04 700.13 795.04 700.13 795.04 700.13 Z M528.04 698.13 C529.04 700.13 529.04 700.13 529.04 700.13 Z M793.04 700.13 C794.04 702.13 794.04 702.13 794.04 702.13 Z M529.04 701.13 C530.04 703.13 530.04 703.13 530.04 703.13 Z M530.04 703.13 C531.04 705.13 531.04 705.13 531.04 705.13 Z M575.04 740.13 C575.04 740.46 575.04 740.79 575.04 741.13 C576.69 741.13 578.34 741.13 580.04 741.13 C580.04 740.8 580.04 740.47 580.04 740.13 C578.39 740.13 576.74 740.13 575.04 740.13 Z M743.04 740.13 C743.04 740.46 743.04 740.79 743.04 741.13 C744.69 741.13 746.34 741.13 748.04 741.13 C748.04 740.8 748.04 740.47 748.04 740.13 C746.39 740.13 744.74 740.13 743.04 740.13 Z M584.04 741.13 C584.04 741.46 584.04 741.79 584.04 742.13 C635.85 742.13 687.66 742.13 741.04 742.13 C741.04 741.8 741.04 741.47 741.04 741.13 C689.23 741.13 637.42 741.13 584.04 741.13 Z " fill="#FB3807" transform="translate(321.9628143310547,247.8662872314453)"/>
<path d="M0 0 C1.45 -0 2.91 -0.01 4.36 -0.02 C8.29 -0.03 12.22 -0.02 16.15 -0.01 C20.27 -0.01 24.39 -0.01 28.52 -0.02 C35.44 -0.02 42.36 -0.02 49.29 -0 C57.27 0.01 65.26 0.01 73.25 -0.01 C80.13 -0.02 87 -0.02 93.88 -0.02 C97.98 -0.01 102.07 -0.01 106.17 -0.02 C110.03 -0.03 113.88 -0.02 117.74 -0.01 C119.15 -0 120.55 -0 121.96 -0.01 C129.69 -0.04 136.3 0.3 143.44 3.39 C144.45 3.78 145.46 4.17 146.51 4.58 C147.46 4.98 147.46 4.98 148.44 5.39 C148.44 6.05 148.44 6.71 148.44 7.39 C149.31 7.68 150.18 7.97 151.07 8.26 C152.18 8.63 153.3 9.01 154.44 9.39 C155.45 9.66 156.46 9.92 157.51 10.2 C161.1 11.65 162.77 13.59 165.44 16.39 C166.27 17.23 167.09 18.07 167.94 18.93 C180.74 32.47 183.91 46.08 183.85 64.44 C183.85 65.91 183.86 67.38 183.87 68.85 C183.89 72.81 183.88 76.77 183.88 80.73 C183.88 84.05 183.88 87.37 183.89 90.69 C183.9 98.53 183.9 106.37 183.89 114.2 C183.88 122.26 183.89 130.32 183.92 138.38 C183.94 145.32 183.95 152.27 183.94 159.22 C183.94 163.35 183.94 167.49 183.96 171.63 C183.97 175.52 183.97 179.41 183.95 183.3 C183.95 184.72 183.95 186.14 183.96 187.55 C184.08 204.73 177.95 216.76 166.59 229.36 C164.57 231.27 162.94 232.25 160.44 233.39 C159.78 234.07 159.12 234.75 158.44 235.45 C156.32 237.51 155.25 237.81 152.44 238.39 C152.11 239.05 151.78 239.71 151.44 240.39 C149.79 240.39 148.14 240.39 146.44 240.39 C146.44 241.05 146.44 241.71 146.44 242.39 C139.69 245.39 139.69 245.39 137.44 245.39 C137.11 245.06 136.78 244.73 136.44 244.39 C135.78 245.05 135.12 245.71 134.44 246.39 C131.89 246.36 131.89 246.36 128.57 246.01 C116.45 244.96 104.19 244.83 92.09 246.16 C85.53 246.72 78.74 246.9 72.22 245.89 C68.32 245.37 64.51 245.25 60.58 245.27 C59.83 245.27 59.08 245.27 58.3 245.27 C55.84 245.27 53.38 245.28 50.92 245.29 C49.2 245.29 47.48 245.29 45.77 245.29 C41.27 245.3 36.77 245.31 32.27 245.32 C27.67 245.33 23.07 245.33 18.47 245.34 C9.46 245.35 0.45 245.37 -8.56 245.39 C-8.56 246.05 -8.56 246.71 -8.56 247.39 C-11.43 248.01 -11.43 248.01 -14.56 248.39 C-16.56 246.39 -16.56 246.39 -17.56 244.39 C-18.37 244.48 -19.19 244.57 -20.03 244.67 C-24.8 244.29 -27.97 242.32 -32.06 239.95 C-37.69 236.61 -37.69 236.61 -43.94 234.92 C-44.8 234.74 -45.67 234.57 -46.56 234.39 C-48.02 232.1 -48.02 232.1 -48.93 229.33 C-49.25 228.41 -49.57 227.49 -49.89 226.54 C-50.22 225.48 -50.22 225.48 -50.56 224.39 C-51.22 224.39 -51.88 224.39 -52.56 224.39 C-52.66 223.75 -52.76 223.11 -52.87 222.45 C-53.1 221.77 -53.32 221.09 -53.56 220.39 C-54.55 220.06 -55.54 219.73 -56.56 219.39 C-56.56 217.74 -56.56 216.09 -56.56 214.39 C-57.22 214.06 -57.88 213.73 -58.56 213.39 C-58.56 212.4 -58.56 211.41 -58.56 210.39 C-59.22 210.06 -59.88 209.73 -60.56 209.39 C-61.33 205.36 -61.68 201.48 -61.56 197.39 C-61.89 197.39 -62.22 197.39 -62.56 197.39 C-62.71 185.29 -62.86 173.18 -63 161.08 C-63.06 155.46 -63.13 149.84 -63.2 144.21 C-63.28 138.77 -63.34 133.32 -63.4 127.87 C-63.42 125.82 -63.45 123.76 -63.48 121.7 C-63.65 108.66 -63.42 95.7 -62.79 82.67 C-62.45 75.53 -62.48 68.41 -62.56 61.26 C-62.58 58.74 -62.6 56.22 -62.62 53.69 C-62.63 52.62 -62.64 51.55 -62.65 50.44 C-62.56 47.34 -62.14 44.43 -61.56 41.39 C-60.9 41.39 -60.24 41.39 -59.56 41.39 C-59.32 40.55 -59.32 40.55 -59.08 39.7 C-57.32 33.95 -54.88 29.37 -51.56 24.39 C-50.72 22.9 -50.72 22.9 -49.87 21.39 C-49.44 20.73 -49 20.07 -48.56 19.39 C-47.9 19.39 -47.24 19.39 -46.56 19.39 C-46.32 18.8 -46.08 18.21 -45.83 17.6 C-41.62 10.29 -31.11 6.32 -23.56 3.39 C-22.98 3.14 -22.41 2.89 -21.81 2.63 C-14.64 -0.17 -7.6 -0.04 0 0 Z M-13.56 2.39 C-13.56 2.72 -13.56 3.05 -13.56 3.39 C34.95 3.39 83.46 3.39 133.44 3.39 C133.44 3.06 133.44 2.73 133.44 2.39 C84.93 2.39 36.42 2.39 -13.56 2.39 Z M-19.56 3.39 C-15.56 4.39 -15.56 4.39 -15.56 4.39 Z M179.44 41.39 C180.44 44.39 180.44 44.39 180.44 44.39 Z M180.44 45.39 C180.44 47.04 180.44 48.69 180.44 50.39 C180.77 50.39 181.1 50.39 181.44 50.39 C181.44 48.74 181.44 47.09 181.44 45.39 C181.11 45.39 180.78 45.39 180.44 45.39 Z M181.44 50.39 C181.44 98.9 181.44 147.41 181.44 197.39 C181.77 197.39 182.1 197.39 182.44 197.39 C182.44 148.88 182.44 100.37 182.44 50.39 C182.11 50.39 181.78 50.39 181.44 50.39 Z M-61.56 139.39 C-60.56 143.39 -60.56 143.39 -60.56 143.39 Z M180.44 197.39 C180.44 199.04 180.44 200.69 180.44 202.39 C180.77 202.39 181.1 202.39 181.44 202.39 C181.44 200.74 181.44 199.09 181.44 197.39 C181.11 197.39 180.78 197.39 180.44 197.39 Z M179.44 202.39 C179.11 204.37 178.78 206.35 178.44 208.39 C179.1 207.73 179.76 207.07 180.44 206.39 C180.12 204.28 180.12 204.28 179.44 202.39 Z " fill="#FB3807" transform="translate(936.556640625,394.61181640625)"/>
<path d="M0 0 C19.11 -0.07 38.21 -0.12 57.32 -0.16 C66.19 -0.17 75.07 -0.19 83.94 -0.23 C91.67 -0.26 99.41 -0.28 107.15 -0.28 C111.24 -0.29 115.33 -0.3 119.43 -0.32 C123.29 -0.34 127.15 -0.34 131.01 -0.34 C132.42 -0.34 133.83 -0.35 135.24 -0.36 C147 -0.45 156.3 0.33 165.44 8.06 C167.95 9.96 170.06 10.95 173 12 C182.75 15.96 187.6 27.51 191.59 36.63 C194.25 43.41 196.14 49.31 196.1 56.63 C196.09 58.29 196.09 58.29 196.09 59.98 C196.08 61.16 196.07 62.34 196.06 63.56 C196.06 65.4 196.06 65.4 196.05 67.27 C196.03 72.51 196.01 77.74 195.98 82.97 C195.96 86.79 195.95 90.62 195.94 94.44 C195.93 95.62 195.92 96.8 195.91 98.02 C195.91 99.68 195.91 99.68 195.9 101.37 C195.9 102.34 195.89 103.31 195.89 104.31 C196 106.98 196.44 109.39 197 112 C197.09 114.23 197.13 116.46 197.12 118.69 C197.13 119.83 197.13 120.96 197.13 122.14 C197 125 197 125 196 127 C195.65 132.73 196.01 138.42 196.56 144.12 C197.05 149.87 196.83 155.45 196.4 161.19 C195.93 167.87 195.96 174.53 196.13 181.22 C196.19 185.95 195.72 189.53 194 194 C193.81 195.89 193.81 195.89 193.62 197.81 C193.09 202.69 191.2 206.66 189 211 C188.59 211.84 188.19 212.67 187.77 213.54 C185.35 218.25 185.35 218.25 184 220 C182.68 220.37 181.34 220.7 180 221 C178.09 222.47 178.09 222.47 176.38 224.31 C175.78 224.91 175.19 225.5 174.59 226.11 C172.92 227.94 172.92 227.94 171.92 230.2 C171.62 230.79 171.31 231.39 171 232 C169.67 232.36 168.34 232.7 167 233 C166.67 233.99 166.34 234.98 166 236 C163.72 238.28 162.71 238.45 159.62 239.06 C156.41 239.7 156.41 239.7 153.25 240.52 C150.38 241.13 147.71 241.13 144.78 241.14 C143.5 241.15 142.22 241.15 140.9 241.16 C139.49 241.16 138.07 241.16 136.66 241.16 C135.17 241.17 133.68 241.17 132.18 241.18 C128.13 241.19 124.08 241.2 120.03 241.2 C117.49 241.2 114.96 241.21 112.43 241.21 C104.49 241.23 96.55 241.24 88.62 241.24 C79.47 241.24 70.32 241.26 61.18 241.29 C54.1 241.31 47.02 241.32 39.94 241.32 C35.72 241.32 31.49 241.33 27.27 241.35 C23.29 241.36 19.31 241.37 15.34 241.36 C13.88 241.36 12.43 241.36 10.98 241.37 C3 241.42 -4.61 241.35 -12 238 C-12.99 237.01 -12.99 237.01 -14 236 C-17.22 233.22 -20 231.43 -24 230 C-26.91 228.69 -29.08 227.2 -31.44 225.06 C-33.59 223.14 -35.19 221.91 -37.81 220.62 C-40.57 218.58 -40.78 216.8 -41.4 213.52 C-42.42 209.23 -44.22 205.22 -45.88 201.15 C-47.67 196.13 -48.12 191.34 -48.15 186.03 C-48.16 184.28 -48.16 184.28 -48.17 182.48 C-48.17 181.21 -48.17 179.94 -48.18 178.63 C-48.18 177.27 -48.19 175.9 -48.2 174.54 C-48.22 170.07 -48.23 165.6 -48.24 161.13 C-48.24 159.59 -48.25 158.04 -48.25 156.5 C-48.27 149.23 -48.28 141.96 -48.29 134.69 C-48.3 126.34 -48.33 117.98 -48.37 109.63 C-48.4 103.15 -48.41 96.67 -48.42 90.2 C-48.42 86.34 -48.43 82.48 -48.45 78.62 C-48.69 40.39 -48.69 40.39 -42.49 33.26 C-42 32.84 -41.51 32.43 -41 32 C-38.94 29.49 -36.95 26.94 -34.99 24.35 C-25.55 12.19 -13.36 4.19 2 2 C1.34 1.34 0.68 0.68 0 0 Z M147 2 C151 3 151 3 151 3 Z M151 3 C155 4 155 4 155 4 Z M-42 34 C-41 36 -41 36 -41 36 Z M-43 36 C-42 39 -42 39 -42 39 Z M-44 39 C-43 42 -43 42 -43 42 Z M191 40 C192 42 192 42 192 42 Z M-45 42 C-44 46 -44 46 -44 46 Z M192 44 C193 46 193 46 193 46 Z M-46 46 C-46 48.31 -46 50.62 -46 53 C-45.67 53 -45.34 53 -45 53 C-45 50.69 -45 48.38 -45 46 C-45.33 46 -45.66 46 -46 46 Z M193 49 C194 52 194 52 194 52 Z M-47 54 C-47 98.55 -47 143.1 -47 189 C-46.67 189 -46.34 189 -46 189 C-46 144.45 -46 99.9 -46 54 C-46.33 54 -46.66 54 -47 54 Z M-46 189 C-46 191.31 -46 193.62 -46 196 C-45.67 196 -45.34 196 -45 196 C-45 193.69 -45 191.38 -45 189 C-45.33 189 -45.66 189 -46 189 Z M-45 196 C-44 200 -44 200 -44 200 Z M-44 200 C-43 203 -43 203 -43 203 Z M-43 204 C-42 206 -42 206 -42 206 Z M-42 206 C-41 208 -41 208 -41 208 Z M188 207 C189 209 189 209 189 209 Z M-41 208 C-40 210 -40 210 -40 210 Z M-40 210 C-39 212 -39 212 -39 212 Z M-9 237 C-5 238 -5 238 -5 238 Z M-5 238 C-1 239 -1 239 -1 239 Z M149 238 C153 239 153 239 153 239 Z M0 239 C0 239.33 0 239.66 0 240 C48.84 240 97.68 240 148 240 C148 239.67 148 239.34 148 239 C99.16 239 50.32 239 0 239 Z " fill="#FB3807" transform="translate(302,601)"/>
<path d="M0 0 C1.98 0.51 1.98 0.51 4 0.44 C4 1.1 4 1.76 4 2.44 C4.66 2.77 5.32 3.1 6 3.44 C5.04 3.65 5.04 3.65 4.06 3.88 C2.02 4.25 2.02 4.25 1 5.44 C0.01 6.1 -0.98 6.76 -2 7.44 C-2 8.43 -2 9.42 -2 10.44 C-3.98 11.43 -3.98 11.43 -6 12.44 C-6 13.43 -6 14.42 -6 15.44 C-10.5 17.38 -13.3 17.7 -18 16.44 C-19.59 16.08 -21.17 15.72 -22.75 15.38 C-23.55 15.2 -24.35 15.02 -25.18 14.84 C-25.78 14.71 -26.38 14.57 -27 14.44 C-27 13.12 -27 11.8 -27 10.44 C-27.66 10.44 -28.32 10.44 -29 10.44 C-29 9.45 -29 8.46 -29 7.44 C-29.99 6.78 -30.98 6.12 -32 5.44 C-28.47 3.32 -25.06 2.91 -21 2.44 C-22.32 1.45 -23.64 0.46 -25 -0.56 C-16.57 -2.39 -8.35 -1.92 0 0 Z M-4 1.44 C-4.33 2.1 -4.66 2.76 -5 3.44 C-4.01 3.11 -3.02 2.78 -2 2.44 C-2.66 2.11 -3.32 1.78 -4 1.44 Z " fill="#FF0200" transform="translate(440.00390625,509.5625)"/>
<path d="M0 0 C2.11 3.72 2.38 6.87 2.66 11.07 C2.83 12.03 2.83 12.03 3 13 C3.66 13.33 4.32 13.66 5 14 C5.33 14.33 5.66 14.66 6 15 C5.29 19.71 5.29 19.71 4 21 C3.9 22.66 3.87 24.33 3.87 25.99 C3.86 27.07 3.86 28.16 3.86 29.27 C3.86 30.47 3.86 31.67 3.86 32.9 C3.85 34.83 3.85 36.75 3.84 38.68 C3.84 40.75 3.83 42.83 3.83 44.91 C3.83 49.25 3.81 53.59 3.79 57.93 C3.78 59.41 3.78 60.9 3.77 62.39 C3.77 63.13 3.76 63.88 3.76 64.64 C3.72 74.75 3.69 84.85 3.67 94.95 C3.67 101.76 3.64 108.58 3.6 115.39 C3.59 118.99 3.57 122.58 3.58 126.18 C3.62 161.46 3.62 161.46 -6 176 C-6.33 175.34 -6.66 174.68 -7 174 C-4.52 167.26 -4.52 167.26 -2 166 C-2 161.71 -2 157.42 -2 153 C-1.34 153 -0.68 153 0 153 C-0.01 152.43 -0.01 151.87 -0.02 151.29 C-0.14 137.36 -0.27 123.44 -0.39 109.52 C-0.45 102.79 -0.51 96.05 -0.57 89.32 C-0.63 82.8 -0.69 76.28 -0.75 69.75 C-0.77 67.29 -0.79 64.83 -0.81 62.36 C-0.89 54.24 -0.95 46.12 -1 38 C-1.01 36.69 -1.02 35.38 -1.03 34.03 C-1.05 30.02 -1.06 26.01 -1.08 22 C-1.08 20.76 -1.09 19.52 -1.1 18.24 C-1.1 16.51 -1.1 16.51 -1.11 14.75 C-1.11 13.73 -1.11 12.72 -1.12 11.67 C-1.01 9.27 -0.63 7.31 0 5 C0.04 3.33 0.05 1.67 0 0 Z M1 11 C1 57.2 1 103.4 1 151 C1.33 151 1.66 151 2 151 C2 104.8 2 58.6 2 11 C1.67 11 1.34 11 1 11 Z M-1 157 C0 160 0 160 0 160 Z " fill="#EB3203" transform="translate(1118,784)"/>
<path d="M0 0 C0.33 0 0.66 0 1 0 C2.23 15.75 3.26 31.38 3.01 47.19 C3 48.15 2.99 49.11 2.97 50.1 C2.95 50.93 2.94 51.76 2.92 52.61 C3.01 55.17 3.47 57.5 4 60 C4.09 62.23 4.13 64.46 4.12 66.69 C4.13 67.83 4.13 68.96 4.13 70.14 C4 73 4 73 3 75 C2.65 80.73 3.01 86.42 3.56 92.12 C4.05 97.87 3.83 103.45 3.4 109.18 C2.93 115.93 2.96 122.64 3.13 129.4 C3.14 130.2 3.15 131.01 3.16 131.83 C3.18 132.54 3.19 133.25 3.21 133.98 C2.96 136.39 2.27 137.95 1 140 C0.34 140.33 -0.32 140.66 -1 141 C-1 127.14 -1 113.28 -1 99 C-0.67 99 -0.34 99 0 99 C0 66.33 0 33.66 0 0 Z " fill="#FB2C00" transform="translate(495,653)"/>
<path d="M0 0 C1.22 -0 2.44 -0.01 3.7 -0.01 C5.03 -0 6.37 0.01 7.71 0.01 C9.13 0.01 10.55 0.01 11.97 0.01 C15.81 0.01 19.66 0.02 23.5 0.04 C27.52 0.05 31.54 0.05 35.56 0.05 C43.16 0.06 50.77 0.08 58.38 0.1 C67.04 0.12 75.7 0.13 84.37 0.14 C102.18 0.16 120 0.2 137.81 0.24 C138.14 0.9 138.47 1.56 138.81 2.24 C138.08 2.24 137.34 2.25 136.59 2.25 C118.71 2.33 100.83 2.42 82.95 2.53 C74.31 2.58 65.66 2.62 57.01 2.66 C49.48 2.7 41.94 2.74 34.4 2.78 C30.41 2.81 26.42 2.83 22.43 2.84 C18.67 2.86 14.91 2.88 11.15 2.91 C9.12 2.92 7.1 2.92 5.07 2.93 C-3.32 3 -10.89 3.72 -18.75 6.87 C-20.45 7.55 -20.45 7.55 -22.19 8.24 C-22.19 7.58 -22.19 6.92 -22.19 6.24 C-20.65 5.61 -19.11 4.99 -17.56 4.37 C-16.7 4.02 -15.85 3.67 -14.96 3.31 C-9.82 1.32 -5.56 -0.01 0 0 Z " fill="#FF2100" transform="translate(928.1883239746094,394.7594909667969)"/>
<path d="M0 0 C1.23 -0 2.46 -0.01 3.73 -0.01 C5.11 -0.01 6.48 -0 7.85 -0 C9.29 -0 10.74 -0.01 12.18 -0.01 C16.1 -0.01 20.01 -0.01 23.93 -0.01 C28.03 -0 32.13 -0.01 36.23 -0.01 C43.12 -0.01 50.01 -0.01 56.89 -0 C64.86 0 72.82 0 80.78 -0.01 C87.61 -0.01 94.44 -0.01 101.28 -0.01 C105.36 -0.01 109.44 -0.01 113.52 -0.01 C117.36 -0.01 121.2 -0.01 125.04 -0 C126.45 -0 127.86 -0 129.27 -0.01 C131.19 -0.01 133.12 -0 135.04 0 C136.66 0 136.66 0 138.31 0 C141.05 0.12 143.54 0.51 146.21 1.13 C145.55 1.79 144.89 2.45 144.21 3.13 C141.66 3.1 141.66 3.1 138.34 2.75 C126.22 1.7 113.96 1.56 101.86 2.9 C95.3 3.46 88.51 3.64 81.99 2.63 C78.09 2.11 74.28 1.99 70.35 2.01 C69.6 2.01 68.85 2.01 68.07 2.01 C65.61 2.01 63.15 2.02 60.69 2.03 C58.97 2.03 57.25 2.03 55.54 2.03 C51.04 2.04 46.54 2.05 42.04 2.06 C37.44 2.07 32.84 2.07 28.24 2.08 C19.23 2.09 10.22 2.11 1.21 2.13 C1.21 2.79 1.21 3.45 1.21 4.13 C-1.66 4.75 -1.66 4.75 -4.79 5.13 C-6.79 3.13 -6.79 3.13 -7.79 1.13 C-5.09 -0.22 -3.02 0 0 0 Z " fill="#FF0200" transform="translate(926.7875518798828,637.8730163574219)"/>
<path d="M0 0 C18.58 -0.05 37.15 -0.08 55.73 -0.1 C64.35 -0.11 72.98 -0.13 81.6 -0.15 C89.12 -0.17 96.64 -0.18 104.15 -0.19 C108.13 -0.19 112.11 -0.2 116.09 -0.21 C119.84 -0.23 123.59 -0.23 127.33 -0.23 C128.71 -0.23 130.08 -0.23 131.46 -0.24 C133.34 -0.25 135.21 -0.24 137.09 -0.24 C138.67 -0.24 138.67 -0.24 140.27 -0.25 C143.02 0 144.66 0.59 147 2 C144.67 2.38 142.34 2.71 140 3 C139.67 2.67 139.34 2.34 139 2 C137.64 1.91 136.27 1.88 134.9 1.89 C134.01 1.89 133.13 1.89 132.22 1.89 C131.24 1.89 130.26 1.9 129.25 1.9 C127.71 1.9 127.71 1.9 126.14 1.91 C123.9 1.91 121.65 1.92 119.41 1.92 C115.83 1.94 112.25 1.94 108.67 1.95 C99.76 1.96 90.84 1.99 81.92 2.01 C73.24 2.03 64.55 2.05 55.86 2.06 C54.06 2.06 54.06 2.06 52.23 2.07 C34.8 2.08 17.41 1.91 0 1 C0 0.67 0 0.34 0 0 Z " fill="#FE0000" transform="translate(316,248)"/>
<path d="M0 0 C4.11 -0.19 6.38 0.19 10 2 C11.37 2.22 12.75 2.41 14.12 2.56 C18 3 18 3 20 4 C22.14 4.09 24.29 4.12 26.43 4.12 C27.1 4.12 27.76 4.12 28.45 4.12 C30.7 4.12 32.94 4.12 35.19 4.11 C36.8 4.11 38.4 4.11 40.01 4.11 C44.38 4.11 48.75 4.11 53.12 4.1 C57.68 4.1 62.24 4.09 66.81 4.09 C75.45 4.09 84.1 4.08 92.74 4.07 C102.58 4.06 112.42 4.06 122.26 4.05 C142.51 4.04 162.75 4.02 183 4 C183 4.33 183 4.66 183 5 C131.85 5.33 80.7 5.66 28 6 C28 6.33 28 6.66 28 7 C19.15 7.73 9.06 6.43 1.59 1.36 C1.06 0.91 0.54 0.46 0 0 Z " fill="#E92F03" transform="translate(882,984)"/>
<path d="M0 0 C3.85 1.58 6.29 4.05 9.19 7 C10.07 7.89 10.95 8.77 11.86 9.69 C14 12 14 12 15 14 C15.66 14.66 16.32 15.32 17 16 C17.33 16.99 17.66 17.98 18 19 C18.66 19.33 19.32 19.66 20 20 C20.33 20.99 20.66 21.98 21 23 C21.66 23.33 22.32 23.66 23 24 C23 24.99 23 25.98 23 27 C23.66 27 24.32 27 25 27 C24.67 28.32 24.34 29.64 24 31 C21.36 30.67 18.72 30.34 16 30 C16 29.01 16 28.02 16 27 C15.01 26.67 14.02 26.34 13 26 C10.59 21.44 9.62 18.23 10 13 C8.68 12.67 7.36 12.34 6 12 C5.63 10.42 5.63 10.42 5.25 8.81 C4.23 5.19 2.55 2.8 0 0 Z " fill="#FE0400" transform="translate(506,543)"/>
<path d="M0 0 C0.99 0.5 0.99 0.5 2 1 C2.17 8.13 2.33 15.25 2.48 22.38 C2.53 24.79 2.59 27.21 2.65 29.62 C3.03 45.46 2.94 61.18 2 77 C1.01 77.5 1.01 77.5 0 78 C0 52.26 0 26.52 0 0 Z " fill="#F00F00" transform="translate(253,374)"/>
<path d="M0 0 C3.1 2.54 3.98 5.17 5 9 C5 10.32 5 11.64 5 13 C5.66 13.33 6.32 13.66 7 14 C7.38 15.99 7.7 17.99 8 20 C8.65 22.34 9.32 24.67 10 27 C11.33 31.76 12.63 36.53 13.94 41.3 C14.36 42.81 14.77 44.32 15.19 45.83 C15.8 48.03 16.4 50.24 17 52.44 C17.19 53.11 17.37 53.78 17.57 54.47 C18.38 57.45 19.05 60.35 19.5 63.41 C19.66 64.26 19.83 65.12 20 66 C20.66 66.33 21.32 66.66 22 67 C21.01 67.99 21.01 67.99 20 69 C19.08 66.48 18.16 63.96 17.25 61.44 C16.98 60.68 16.7 59.91 16.42 59.13 C14.18 52.8 12.51 46.43 11.05 39.88 C10.28 36.89 10.28 36.89 7.88 35.59 C7.26 35.4 6.64 35.2 6 35 C6 32.36 6 29.72 6 27 C6.66 27 7.32 27 8 27 C7.79 26.38 7.58 25.76 7.36 25.12 C6.4 22.31 5.45 19.5 4.5 16.69 C4.17 15.71 3.83 14.73 3.49 13.73 C3.17 12.79 2.86 11.85 2.53 10.89 C2.24 10.02 1.94 9.16 1.64 8.27 C1 6 1 6 1 3 C0.01 2.67 -0.98 2.34 -2 2 C-1.34 2 -0.68 2 0 2 C0 1.34 0 0.68 0 0 Z " fill="#FD1C00" transform="translate(542,592)"/>
<path d="M0 0 C0.66 0 1.32 0 2 0 C2 17.16 2 34.32 2 52 C2.66 52.33 3.32 52.66 4 53 C3.67 54.32 3.34 55.64 3 57 C3.66 57.33 4.32 57.66 5 58 C2 58 2 58 0 57 C-1.41 51.55 -1.15 45.91 -1.12 40.31 C-1.12 39.28 -1.12 38.25 -1.12 37.19 C-1.05 24.78 -0.54 12.39 0 0 Z " fill="#FB0300" transform="translate(845,885)"/>
<path d="M0 0 C38.61 0 77.22 0 117 0 C117 0.33 117 0.66 117 1 C78.39 1 39.78 1 0 1 C0 0.67 0 0.34 0 0 Z " fill="#FF0000" transform="translate(909,739)"/>
<path d="M0 0 C3.96 0 7.92 0 12 0 C12.33 0.99 12.66 1.98 13 3 C13.83 2.84 14.66 2.67 15.51 2.51 C19.3 1.96 22.99 1.87 26.8 1.9 C27.89 1.9 27.89 1.9 29 1.91 C31.29 1.91 33.58 1.92 35.88 1.94 C37.44 1.94 39 1.95 40.56 1.95 C44.38 1.96 48.19 1.98 52 2 C52 2.99 52 3.98 52 5 C47.59 5.08 43.19 5.13 38.78 5.16 C37.29 5.18 35.8 5.2 34.31 5.23 C8.51 5.67 8.51 5.67 0 0 Z M21 3 C21 3.33 21 3.66 21 4 C29.58 4 38.16 4 47 4 C47 3.67 47 3.34 47 3 C38.42 3 29.84 3 21 3 Z " fill="#F53500" transform="translate(640,737)"/>
<path d="M0 0 C6.79 4.13 6.79 4.13 8 8 C8 9.32 8 10.64 8 12 C9.65 12.33 11.3 12.66 13 13 C13 13.99 13 14.98 13 16 C13.66 16.33 14.32 16.66 15 17 C15 18.32 15 19.64 15 21 C15.66 21 16.32 21 17 21 C16.67 21.66 16.34 22.32 16 23 C15.34 23 14.68 23 14 23 C14 22.34 14 21.68 14 21 C13.01 20.67 12.02 20.34 11 20 C10.67 18.35 10.34 16.7 10 15 C7.36 14.34 4.72 13.68 2 13 C1.34 8.71 0.68 4.42 0 0 Z " fill="#FF0A00" transform="translate(809,783)"/>
<path d="M0 0 C2.23 2.86 4.12 5.8 5.94 8.94 C9.78 15.41 13.9 20.58 20 25 C16.65 25.84 14.22 26.38 11 25 C9.73 22.71 9.73 22.71 8.75 19.94 C8.41 19.02 8.08 18.1 7.73 17.15 C7.49 16.44 7.25 15.73 7 15 C6.34 15 5.68 15 5 15 C4.9 14.36 4.79 13.72 4.69 13.06 C4.46 12.38 4.23 11.7 4 11 C3.01 10.67 2.02 10.34 1 10 C1 8.35 1 6.7 1 5 C0.34 4.67 -0.32 4.34 -1 4 C-0.67 2.68 -0.34 1.36 0 0 Z " fill="#FF0800" transform="translate(879,604)"/>
<path d="M0 0 C2.6 3.9 2.15 7.47 2 12 C0.02 12.99 0.02 12.99 -2 14 C-2.45 13.34 -2.91 12.68 -3.38 12 C-3.91 11.34 -4.45 10.68 -5 10 C-5.66 10 -6.32 10 -7 10 C-7.14 9.26 -7.29 8.51 -7.44 7.75 C-7.9 5.48 -8.42 3.24 -9 1 C-5.93 0.09 -3.2 -0.09 0 0 Z " fill="#FF0000" transform="translate(489,565)"/>
<path d="M0 0 C13.2 0 26.4 0 40 0 C40 0.66 40 1.32 40 2 C34.27 3.3 28.66 3.18 22.81 3.19 C21.18 3.21 21.18 3.21 19.52 3.22 C12.77 3.24 6.56 2.63 0 1 C0 0.67 0 0.34 0 0 Z " fill="#FF1800" transform="translate(322,507)"/>
<path d="M0 0 C1.96 -0.03 3.92 -0.05 5.88 -0.06 C6.97 -0.07 8.06 -0.09 9.18 -0.1 C12 0 12 0 14 1 C15.36 1.12 16.72 1.18 18.08 1.21 C18.92 1.23 19.76 1.25 20.63 1.27 C21.99 1.29 21.99 1.29 23.38 1.32 C24.78 1.35 24.78 1.35 26.2 1.38 C29.17 1.44 32.15 1.5 35.12 1.56 C37.14 1.61 39.15 1.65 41.17 1.69 C46.11 1.8 51.06 1.9 56 2 C56 2.33 56 2.66 56 3 C48.6 4.03 41.31 4.19 33.85 4.19 C31.64 4.19 29.43 4.21 27.22 4.22 C19.59 4.25 12.43 3.88 5 2 C3.33 1.66 1.67 1.32 0 1 C0 0.67 0 0.34 0 0 Z " fill="#FB0200" transform="translate(616,516)"/>
<path d="M0 0 C2 2 2 2 2.5 5.06 C2.66 6.03 2.83 7 3 8 C3.66 8.33 4.32 8.66 5 9 C5.02 13.02 5.04 17.04 5.05 21.06 C5.06 22.43 5.07 23.79 5.08 25.16 C5.09 27.13 5.09 29.1 5.1 31.07 C5.1 32.25 5.11 33.44 5.11 34.66 C5 37.86 4.61 40.85 4 44 C1.89 40.84 1.75 40.05 1.81 36.44 C1.82 35.65 1.83 34.87 1.83 34.06 C2 32 2 32 3 30 C2.87 22.29 2.21 14.65 0.4 7.15 C-0.05 4.73 -0.06 2.46 0 0 Z M3 10 C4 14 4 14 4 14 Z " fill="#FC2E00" transform="translate(841,841)"/>
<path d="M0 0 C2.38 0.31 2.38 0.31 5 1 C7 4 7 4 7.94 7.06 C8.77 10.28 8.77 10.28 12 12 C12 12.66 12 13.32 12 14 C12.66 14 13.32 14 14 14 C15.71 15.96 17.38 17.96 19 20 C16 20 16 20 13.81 18.07 C13.03 17.24 12.24 16.41 11.44 15.56 C8.53 12.36 8.53 12.36 5 10 C5 9.34 5 8.68 5 8 C4.01 8.33 3.02 8.66 2 9 C0 2.25 0 2.25 0 0 Z " fill="#EA1B00" transform="translate(261,474)"/>
<path d="M0 0 C0.66 0.33 1.32 0.66 2 1 C1.67 8.59 1.34 16.18 1 24 C0.34 24 -0.32 24 -1 24 C-2.28 20.17 -2.18 16.55 -2.19 12.56 C-2.2 11.8 -2.21 11.03 -2.22 10.25 C-2.24 3.32 -2.24 3.32 0 0 Z " fill="#F33202" transform="translate(876,438)"/>
<path d="M0 0 C11.88 0 23.76 0 36 0 C36.5 1.49 36.5 1.49 37 3 C29.57 5.43 29.57 5.43 26 4 C26 3.34 26 2.68 26 2 C13.13 1.5 13.13 1.5 0 1 C0 0.67 0 0.34 0 0 Z " fill="#FF2400" transform="translate(372,508)"/>
<path d="M0 0 C7.17 2.89 13.15 10.81 16.69 17.5 C18 21 18 21 17 24 C12.59 19.97 7.89 14.99 6.55 8.99 C5.86 6.48 4.67 5.17 2.94 3.25 C2.39 2.64 1.84 2.02 1.28 1.39 C0.86 0.93 0.43 0.47 0 0 Z " fill="#EF2501" transform="translate(1098,409)"/>
<path d="M0 0 C0.78 0.52 1.57 1.03 2.38 1.56 C3.24 2.04 4.11 2.51 5 3 C5.66 2.67 6.32 2.34 7 2 C7.47 2.5 7.95 2.99 8.44 3.5 C9.76 5.12 9.76 5.12 11 5 C11 6.98 11 8.96 11 11 C9.35 11.33 7.7 11.66 6 12 C5.34 11.01 4.68 10.02 4 9 C3.34 9.66 2.68 10.32 2 11 C1.34 11 0.68 11 0 11 C0 7.37 0 3.74 0 0 Z M1 5 C2 7 2 7 2 7 Z M5 6 C6 8 6 8 6 8 Z " fill="#FF0000" transform="translate(850,634)"/>
<path d="M0 0 C0.6 0.8 1.2 1.61 1.81 2.44 C3.81 5.22 3.81 5.22 7 6 C7.06 6.74 7.12 7.49 7.19 8.25 C8.26 11.88 10.03 12.71 13 15 C14.8 17.26 16.38 19.6 18 22 C15.11 20.68 12.91 19.2 10.56 17.06 C8.38 15.09 6.94 13.97 4.19 12.81 C0.4 9.67 0.53 4.7 0 0 Z " fill="#E21800" transform="translate(260,809)"/>
<path d="M0 0 C0 3 0 3 -2.67 5.86 C-3.84 6.97 -5.01 8.08 -6.19 9.19 C-10.97 13.8 -14.87 18.08 -18 24 C-18.33 23.34 -18.66 22.68 -19 22 C-13.92 13.76 -8 5.61 0 0 Z " fill="#EE3405" transform="translate(282,263)"/>
<path d="M0 0 C0.99 0 1.98 0 3 0 C6.18 3.27 7 4.32 7 9 C3.99 9.93 3.13 10.04 0 9 C0 6.03 0 3.06 0 0 Z " fill="#FC0C00" transform="translate(599,715)"/>
<path d="M0 0 C2.11 3.72 2.38 6.87 2.66 11.07 C2.77 11.71 2.88 12.35 3 13 C3.66 13.33 4.32 13.66 5 14 C5.33 14.33 5.66 14.66 6 15 C5.29 19.71 5.29 19.71 4 21 C3.77 22.35 3.59 23.7 3.44 25.06 C3.29 26.36 3.15 27.66 3 29 C2.67 29 2.34 29 2 29 C1.94 27.8 1.88 26.59 1.82 25.35 C1.73 23.78 1.65 22.2 1.56 20.62 C1.52 19.83 1.48 19.04 1.44 18.22 C1.31 13.97 1.31 13.97 0 10 C-0.07 8.29 -0.08 6.58 -0.06 4.88 C-0.05 3.96 -0.04 3.05 -0.04 2.12 C-0.02 1.42 -0.01 0.72 0 0 Z " fill="#EA1B00" transform="translate(1118,784)"/>
<path d="M0 0 C4.23 1.31 8.13 2.84 12 5 C12.33 5.66 12.66 6.32 13 7 C14.66 7.69 16.33 8.35 18 9 C20.81 10.5 20.81 10.5 23 12 C23 12.66 23 13.32 23 14 C23.66 14.33 24.32 14.66 25 15 C21.02 15 20.09 13.47 17 11 C14.38 9.56 11.7 8.27 9 7 C8.34 6.67 7.68 6.34 7 6 C7 5.34 7 4.68 7 4 C6.03 3.71 5.06 3.42 4.06 3.12 C1 2 1 2 0 0 Z " fill="#F90E00" transform="translate(770,754)"/>
<path d="M0 0 C10.89 0 21.78 0 33 0 C33 0.99 33 1.98 33 3 C29.37 3 25.74 3 22 3 C22 2.67 22 2.34 22 2 C14.74 1.67 7.48 1.34 0 1 C0 0.67 0 0.34 0 0 Z " fill="#E92303" transform="translate(659,739)"/>
<path d="M0 0 C0.33 0.99 0.66 1.98 1 3 C2.65 2.67 4.3 2.34 6 2 C6 3.65 6 5.3 6 7 C6.66 7 7.32 7 8 7 C8 8.98 8 10.96 8 13 C6.35 12.67 4.7 12.34 3 12 C2.9 11.46 2.79 10.93 2.69 10.38 C2.03 7.8 2.03 7.8 0.38 4.88 C-0.08 3.93 -0.53 2.98 -1 2 C-0.67 1.34 -0.34 0.68 0 0 Z M5 7 C6 10 6 10 6 10 Z " fill="#E12001" transform="translate(252,453)"/>
<path d="M0 0 C3.54 1.38 6.99 2.9 10.44 4.5 C14.24 6.24 17.98 7.81 22 9 C21.01 9.66 20.02 10.32 19 11 C18.47 10.72 17.94 10.45 17.39 10.16 C16.68 9.8 15.98 9.44 15.25 9.06 C14.55 8.7 13.86 8.34 13.14 7.97 C11.1 7.04 9.19 6.47 7 6 C7 5.34 7 4.68 7 4 C4.03 3.5 4.03 3.5 1 3 C0.67 2.01 0.34 1.02 0 0 Z " fill="#FF0B00" transform="translate(584,503)"/>
<path d="M0 0 C5 5 10 10 15 15 C14.01 16.49 14.01 16.49 13 18 C12.57 17.24 12.13 16.47 11.69 15.69 C10.26 13.42 8.97 11.78 7 10 C6.01 10.5 6.01 10.5 5 11 C4.71 10.2 4.42 9.39 4.12 8.56 C3.27 5.87 3.27 5.87 1 5 C0.38 2.44 0.38 2.44 0 0 Z " fill="#FA1F00" transform="translate(584,699)"/>
<path d="M0 0 C0 0.99 0 1.98 0 3 C-1.57 4.43 -1.57 4.43 -3.69 5.88 C-6.28 7.72 -8.66 9.52 -10.88 11.81 C-13 14 -13 14 -15 15 C-14.67 13.68 -14.34 12.36 -14 11 C-13.34 11 -12.68 11 -12 11 C-11.78 10.42 -11.55 9.83 -11.32 9.23 C-9.62 6.36 -7.64 5.09 -4.88 3.25 C-3.96 2.64 -3.05 2.02 -2.12 1.39 C-1.07 0.7 -1.07 0.7 0 0 Z " fill="#EE0E00" transform="translate(902,403)"/>
<path d="M0 0 C3.3 1.05 6.51 2.18 9.69 3.56 C12.91 5.02 12.91 5.02 16 6 C16 6.66 16 7.32 16 8 C11.54 8.39 9.02 7.22 5.19 5 C4.21 4.44 3.24 3.89 2.23 3.31 C1.49 2.88 0.76 2.45 0 2 C0 1.34 0 0.68 0 0 Z " fill="#FF0F00" transform="translate(902,631)"/>
<path d="M0 0 C0.66 0.33 1.32 0.66 2 1 C2 1.66 2 2.32 2 3 C-5.43 5.43 -5.43 5.43 -9 4 C-9 3.34 -9 2.68 -9 2 C-9.99 1.67 -10.98 1.34 -12 1 C-11.22 1.01 -10.44 1.02 -9.63 1.04 C-8.62 1.04 -7.61 1.05 -6.56 1.06 C-5.05 1.08 -5.05 1.08 -3.5 1.1 C-1.06 1.29 -1.06 1.29 0 0 Z " fill="#FF0000" transform="translate(407,508)"/>
<path d="M0 0 C6.52 0.62 6.52 0.62 8.94 2.56 C9.29 3.04 9.64 3.51 10 4 C6.79 6.14 5.72 6.48 2 6 C0 3 0 3 0 0 Z M3 4 C7 5 7 5 7 5 Z " fill="#FD0300" transform="translate(629,734)"/>
<path d="M0 0 C0.33 0.99 0.66 1.98 1 3 C1.66 3.33 2.32 3.66 3 4 C3 5.32 3 6.64 3 8 C3.66 8 4.32 8 5 8 C4.67 8.66 4.34 9.32 4 10 C3.34 10 2.68 10 2 10 C2 9.34 2 8.68 2 8 C1.01 7.67 0.02 7.34 -1 7 C-1.33 5.02 -1.66 3.04 -2 1 C-1.34 0.67 -0.68 0.34 0 0 Z " fill="#F00500" transform="translate(821,796)"/>
<path d="M0 0 C1.32 0.33 2.64 0.66 4 1 C4 1.99 4 2.98 4 4 C4.31 6 4.65 8 5 10 C3.06 9.69 3.06 9.69 1 9 C-0.07 5.8 -0.07 3.34 0 0 Z " fill="#FF0000" transform="translate(548,619)"/>
<path d="M0 0 C1.32 0 2.64 0 4 0 C4.99 2.97 5.98 5.94 7 9 C3.35 7.75 2.22 7.33 0 4 C0 2.68 0 1.36 0 0 Z " fill="#E43402" transform="translate(258,466)"/>
<path d="M0 0 C0 0.66 0 1.32 0 2 C2.31 2 4.62 2 7 2 C7 2.66 7 3.32 7 4 C4.52 3.89 2.04 3.76 -0.44 3.62 C-1.14 3.59 -1.85 3.56 -2.58 3.53 C-4.39 3.43 -6.2 3.22 -8 3 C-8.33 2.34 -8.66 1.68 -9 1 C-5.85 0.3 -3.27 0 0 0 Z " fill="#F22300" transform="translate(725,739)"/>
<path d="M0 0 C3.71 0.08 6.79 0.87 10.25 2.25 C8.56 3.38 8.56 3.38 6.25 4.25 C4.57 3.61 2.91 2.94 1.25 2.25 C-1.08 2.17 -3.42 2.16 -5.75 2.25 C-3.75 0.25 -3.75 0.25 0 0 Z " fill="#FF0800" transform="translate(680.75,518.75)"/>
<path d="M0 0 C0.8 0.01 1.6 0.02 2.42 0.03 C3.03 0.04 3.63 0.05 4.25 0.06 C4.25 0.72 4.25 1.38 4.25 2.06 C2.65 2.28 1.04 2.49 -0.56 2.69 C-1.46 2.8 -2.35 2.92 -3.27 3.04 C-5.75 3.06 -5.75 3.06 -8.75 1.06 C-5.76 0.19 -3.11 -0.05 0 0 Z " fill="#FF2F00" transform="translate(416.75,506.9375)"/>
<path d="M0 0 C0.33 0 0.66 0 1 0 C1.78 5.02 2.13 8.98 1 14 C-1.11 10.84 -1.25 10.05 -1.19 6.44 C-1.18 5.65 -1.17 4.87 -1.17 4.06 C-1 2 -1 2 0 0 Z " fill="#FF0000" transform="translate(844,871)"/>
<path d="M0 0 C1.65 0 3.3 0 5 0 C4.67 1.98 4.34 3.96 4 6 C2.68 6.33 1.36 6.66 0 7 C0 4.69 0 2.38 0 0 Z M3 2 C4 4 4 4 4 4 Z " fill="#FF0000" transform="translate(381,557)"/>
<path d="M0 0 C0.66 0.33 1.32 0.66 2 1 C0.12 8.62 0.12 8.62 -1 12 C-2 11 -2 11 -2.19 7.69 C-2.02 4.35 -1.76 2.74 0 0 Z " fill="#BE1400" transform="translate(876,438)"/>
<path d="M0 0 C2.5 2.94 3.47 5.18 4 9 C-0.8 6.54 -0.8 6.54 -1.81 3.81 C-1.87 3.21 -1.94 2.62 -2 2 C-1.34 2 -0.68 2 0 2 C0 1.34 0 0.68 0 0 Z " fill="#BD2A02" transform="translate(1112,424)"/>
<path d="M0 0 C4.29 0 8.58 0 13 0 C13 0.66 13 1.32 13 2 C11.06 2.56 11.06 2.56 9 3 C8.67 2.67 8.34 2.34 8 2 C6.65 1.77 5.3 1.59 3.94 1.44 C2.64 1.29 1.34 1.15 0 1 C0 0.67 0 0.34 0 0 Z " fill="#FF0400" transform="translate(349,507)"/>
<path d="M0 0 C5.44 0.99 5.44 0.99 11 2 C11 2.33 11 2.66 11 3 C7.04 3 3.08 3 -1 3 C-0.67 2.01 -0.34 1.02 0 0 Z " fill="#EA3F03" transform="translate(452,249)"/>
<path d="M0 0 C2.5 2.25 2.5 2.25 5 5 C5 6.32 5 7.64 5 9 C2 8 2 8 0.81 6.19 C0 4 0 4 0 0 Z " fill="#FF1C00" transform="translate(769,582)"/>
<path d="M0 0 C6.62 0.75 6.62 0.75 10 3 C7.25 3.75 7.25 3.75 4 4 C1.62 2.06 1.62 2.06 0 0 Z " fill="#EE1100" transform="translate(692,522)"/>
<path d="M0 0 C3.46 1.25 6.15 2.68 9 5 C8.01 5.5 8.01 5.5 7 6 C4.52 4.89 2.32 3.42 0 2 C0 1.34 0 0.68 0 0 Z " fill="#FF0000" transform="translate(575,498)"/>
<path d="M0 0 C1.98 0.99 1.98 0.99 4 2 C4 3.32 4 4.64 4 6 C3.01 6.33 2.02 6.66 1 7 C0 6 0 6 -0.06 2.94 C-0.04 1.97 -0.02 1 0 0 Z " fill="#FA0000" transform="translate(262,476)"/>
<path d="M0 0 C0.99 0 1.98 0 3 0 C3 1.98 3 3.96 3 6 C2.01 5.67 1.02 5.34 0 5 C0 3.35 0 1.7 0 0 Z " fill="#FF4A00" transform="translate(844,912)"/>
<path d="M0 0 C2.62 2.37 4.39 4.86 6 8 C5.67 8.66 5.34 9.32 5 10 C3.02 7.03 1.04 4.06 -1 1 C-0.67 0.67 -0.34 0.34 0 0 Z " fill="#FA0000" transform="translate(483,620)"/>
<path d="M0 0 C3.47 1.98 3.47 1.98 7 4 C6.67 4.99 6.34 5.98 6 7 C5.34 7 4.68 7 4 7 C0 2.53 0 2.53 0 0 Z " fill="#FD0B00" transform="translate(753,560)"/>
<path d="M0 0 C4.88 -0.35 7.77 0.58 12 3 C8.52 4.16 7.66 3.77 4.31 2.56 C3.5 2.28 2.7 1.99 1.86 1.69 C1.25 1.46 0.63 1.24 0 1 C0 0.67 0 0.34 0 0 Z " fill="#FF0000" transform="translate(463,250)"/>
<path d="M0 0 C2.5 2.31 2.5 2.31 5 5 C5 5.99 5 6.98 5 8 C3.02 5.69 1.04 3.38 -1 1 C-0.67 0.67 -0.34 0.34 0 0 Z " fill="#FC4900" transform="translate(743,548)"/>
<path d="M0 0 C0.99 0.5 0.99 0.5 2 1 C2 2.98 2 4.96 2 7 C1.01 7.5 1.01 7.5 0 8 C0 5.36 0 2.72 0 0 Z " fill="#000000" transform="translate(1221,538)"/>
<path d="M0 0 C0 3 0 3 -2 5.19 C-2.66 5.79 -3.32 6.38 -4 7 C-4.66 6.67 -5.32 6.34 -6 6 C-4.02 4.02 -2.04 2.04 0 0 Z " fill="#FB0800" transform="translate(483,821)"/>
<path d="M0 0 C2.64 0 5.28 0 8 0 C8 0.66 8 1.32 8 2 C5.36 1.67 2.72 1.34 0 1 C0 0.67 0 0.34 0 0 Z " fill="#FF0000" transform="translate(879,734)"/>
<path d="M0 0 C0.66 0 1.32 0 2 0 C2 1.98 2 3.96 2 6 C1.34 6 0.68 6 0 6 C0 4.02 0 2.04 0 0 Z " fill="#000000" transform="translate(1229,889)"/>
<path d="M0 0 C0.33 0 0.66 0 1 0 C1 2.64 1 5.28 1 8 C0.34 7.67 -0.32 7.34 -1 7 C-0.67 4.69 -0.34 2.38 0 0 Z " fill="#FF0000" transform="translate(842,630)"/>
<path d="M0 0 C2.88 1.29 4.87 2.66 7 5 C3.35 3.75 2.22 3.33 0 0 Z " fill="#FF0000" transform="translate(497,536)"/>
<path d="M0 0 C3.3 0 6.6 0 10 0 C10 0.33 10 0.66 10 1 C6.7 1 3.4 1 0 1 C0 0.67 0 0.34 0 0 Z " fill="#E50000" transform="translate(1057,739)"/>
<path d="M0 0 C2.64 0 5.28 0 8 0 C8 0.33 8 0.66 8 1 C5.36 1 2.72 1 0 1 C0 0.67 0 0.34 0 0 Z " fill="#FF0000" transform="translate(896,738)"/>
<path d="M0 0 C3.88 1.75 3.88 1.75 5 4 C1.12 2.25 1.12 2.25 0 0 Z " fill="#FF3F00" transform="translate(836,710)"/>
<path d="M0 0 C0.66 0 1.32 0 2 0 C2 1.65 2 3.3 2 5 C1.34 4.67 0.68 4.34 0 4 C0 2.68 0 1.36 0 0 Z " fill="#FF0000" transform="translate(839,629)"/>
<path d="M0 0 C0.99 0.5 0.99 0.5 2 1 C1.67 2.65 1.34 4.3 1 6 C0.67 6 0.34 6 0 6 C0 4.02 0 2.04 0 0 Z " fill="#FF0000" transform="translate(852,615)"/>
<path d="M0 0 C0.99 0.5 0.99 0.5 2 1 C1.67 2.98 1.34 4.96 1 7 C0.67 7 0.34 7 0 7 C0 4.69 0 2.38 0 0 Z " fill="#FF0000" transform="translate(833,606)"/>
<path d="M0 0 C0.66 0 1.32 0 2 0 C2 1.32 2 2.64 2 4 C1.34 4 0.68 4 0 4 C0 2.68 0 1.36 0 0 Z " fill="#000000" transform="translate(1223,534)"/>
<path d="M0 0 C0 0.66 0 1.32 0 2 C-1.32 2.33 -2.64 2.66 -4 3 C-4 2.34 -4 1.68 -4 1 C-2 0 -2 0 0 0 Z " fill="#FF0000" transform="translate(841,435)"/>
<path d="M0 0 C0.33 0 0.66 0 1 0 C1 2.31 1 4.62 1 7 C0.67 7 0.34 7 0 7 C0 4.69 0 2.38 0 0 Z " fill="#FF0000" transform="translate(858,646)"/>
<path d="M0 0 C0.33 0 0.66 0 1 0 C1 2.31 1 4.62 1 7 C0.67 7 0.34 7 0 7 C0 4.69 0 2.38 0 0 Z " fill="#FF0000" transform="translate(848,634)"/>
<path d="M0 0 C0.33 0 0.66 0 1 0 C1 2.31 1 4.62 1 7 C0.67 7 0.34 7 0 7 C0 4.69 0 2.38 0 0 Z " fill="#FF0000" transform="translate(844,631)"/>
<path d="M0 0 C0.33 0 0.66 0 1 0 C1 2.31 1 4.62 1 7 C0.67 7 0.34 7 0 7 C0 4.69 0 2.38 0 0 Z " fill="#FF0000" transform="translate(520,631)"/>
<path d="M0 0 C0.33 0 0.66 0 1 0 C1 2.31 1 4.62 1 7 C0.67 7 0.34 7 0 7 C0 4.69 0 2.38 0 0 Z " fill="#FF0000" transform="translate(836,606)"/>
<path d="M0 0 C0.33 0 0.66 0 1 0 C1 2.31 1 4.62 1 7 C0.67 7 0.34 7 0 7 C0 4.69 0 2.38 0 0 Z " fill="#000000" transform="translate(130,372)"/>
<path d="M0 0 C1.48 0.99 1.48 0.99 3 2 C2.67 2.66 2.34 3.32 2 4 C1.34 2.68 0.68 1.36 0 0 Z " fill="#FF0000" transform="translate(1105,761)"/>
<path d="M0 0 C2.48 0.5 2.48 0.5 5 1 C4.01 1.33 3.02 1.66 2 2 C1.34 1.34 0.68 0.68 0 0 Z " fill="#FF0000" transform="translate(871,731)"/>
<path d="M0 0 C0.66 0.33 1.32 0.66 2 1 C0.02 1.99 0.02 1.99 -2 3 C-1.34 2.01 -0.68 1.02 0 0 Z " fill="#FF0000" transform="translate(837,630)"/>
<path d="M0 0 C0 0.99 0 1.98 0 3 C-0.99 3.5 -0.99 3.5 -2 4 C-1.34 2.68 -0.68 1.36 0 0 Z " fill="#FF0000" transform="translate(268,621)"/>
<path d="M0 0 C0.33 0 0.66 0 1 0 C1 1.98 1 3.96 1 6 C0.67 6 0.34 6 0 6 C0 4.02 0 2.04 0 0 Z " fill="#000000" transform="translate(132,373)"/>
<path d="M0 0 C0.99 0.5 0.99 0.5 2 1 C2 1.66 2 2.32 2 3 C1.34 3 0.68 3 0 3 C0 2.01 0 1.02 0 0 Z " fill="#000000" transform="translate(1223,897)"/>
<path d="M0 0 C1.65 0 3.3 0 5 0 C5 0.33 5 0.66 5 1 C3.35 1 1.7 1 0 1 C0 0.67 0 0.34 0 0 Z " fill="#FF0000" transform="translate(1027,739)"/>
<path d="M0 0 C0.99 0.5 0.99 0.5 2 1 C2 1.66 2 2.32 2 3 C1.34 3 0.68 3 0 3 C0 2.01 0 1.02 0 0 Z " fill="#FF0000" transform="translate(827,600)"/>
<path d="M0 0 C0.33 0 0.66 0 1 0 C1 1.65 1 3.3 1 5 C0.67 5 0.34 5 0 5 C0 3.35 0 1.7 0 0 Z " fill="#FF0000" transform="translate(492,571)"/>
<path d="M0 0 C0.99 0.5 0.99 0.5 2 1 C1.67 1.99 1.34 2.98 1 4 C0.67 2.68 0.34 1.36 0 0 Z " fill="#FF0000" transform="translate(511,287)"/>
<path d="M0 0 C0 3 0 3 0 3 Z " fill="#000000" transform="translate(90,1086)"/>
<path d="M0 0 C1 4 1 4 1 4 Z " fill="#000000" transform="translate(82,1085)"/>
<path d="M0 0 C0.66 0 1.32 0 2 0 C2 0.66 2 1.32 2 2 C1.34 2 0.68 2 0 2 C0 1.34 0 0.68 0 0 Z " fill="#000000" transform="translate(631,956)"/>
<path d="M0 0 C0.66 0 1.32 0 2 0 C2 0.66 2 1.32 2 2 C1.34 2 0.68 2 0 2 C0 1.34 0 0.68 0 0 Z " fill="#000000" transform="translate(1221,909)"/>
<path d="M0 0 C1 4 1 4 1 4 Z " fill="#000000" transform="translate(1232,890)"/>
<path d="M0 0 C0.99 0.33 1.98 0.66 3 1 C2.01 1 1.02 1 0 1 C0 0.67 0 0.34 0 0 Z " fill="#E42A00" transform="translate(281,833)"/>
<path d="M0 0 C0.99 0.33 1.98 0.66 3 1 C2.01 1 1.02 1 0 1 C0 0.67 0 0.34 0 0 Z " fill="#EF3A00" transform="translate(278,831)"/>
<path d="M0 0 C0.99 0.5 0.99 0.5 2 1 C1.67 1.66 1.34 2.32 1 3 C0.67 2.01 0.34 1.02 0 0 Z " fill="#FF2500" transform="translate(1111,769)"/>
<path d="M0 0 C0.99 0.5 0.99 0.5 2 1 C1.67 1.66 1.34 2.32 1 3 C0.67 2.01 0.34 1.02 0 0 Z " fill="#FF5400" transform="translate(1109,766)"/>
<path d="M0 0 C4 1 4 1 4 1 Z " fill="#FF0000" transform="translate(891,737)"/>
<path d="M0 0 C4 1 4 1 4 1 Z " fill="#FF0000" transform="translate(887,736)"/>
<path d="M0 0 C0.99 0.33 1.98 0.66 3 1 C2.01 1 1.02 1 0 1 C0 0.67 0 0.34 0 0 Z " fill="#FF0000" transform="translate(843,716)"/>
<path d="M0 0 C0.99 0.5 0.99 0.5 2 1 C1.67 1.66 1.34 2.32 1 3 C0.67 2.01 0.34 1.02 0 0 Z " fill="#FF0000" transform="translate(574,685)"/>
<path d="M0 0 C1 4 1 4 1 4 Z " fill="#FF0000" transform="translate(846,637)"/>
<path d="M0 0 C0.66 0 1.32 0 2 0 C2 0.66 2 1.32 2 2 C1.34 2 0.68 2 0 2 C0 1.34 0 0.68 0 0 Z " fill="#FF0000" transform="translate(833,630)"/>
<path d="M0 0 C0 3 0 3 0 3 Z " fill="#FF0000" transform="translate(263,628)"/>
<path d="M0 0 C0 3 0 3 0 3 Z " fill="#FF0000" transform="translate(265,625)"/>
<path d="M0 0 C1 4 1 4 1 4 Z " fill="#FF0000" transform="translate(850,617)"/>
<path d="M0 0 C0.99 0.33 1.98 0.66 3 1 C2.01 1 1.02 1 0 1 C0 0.67 0 0.34 0 0 Z " fill="#FF1500" transform="translate(472,611)"/>
<path d="M0 0 C1 4 1 4 1 4 Z " fill="#FF0000" transform="translate(850,609)"/>
<path d="M0 0 C0.99 0.33 1.98 0.66 3 1 C2.01 1 1.02 1 0 1 C0 0.67 0 0.34 0 0 Z " fill="#FF0000" transform="translate(835,603)"/>
<path d="M0 0 C0.66 0 1.32 0 2 0 C2 0.66 2 1.32 2 2 C1.34 2 0.68 2 0 2 C0 1.34 0 0.68 0 0 Z " fill="#FF0000" transform="translate(825,603)"/>
<path d="M0 0 C4 1 4 1 4 1 Z " fill="#FF0000" transform="translate(294,603)"/>
<path d="M0 0 C4 1 4 1 4 1 Z " fill="#FF0000" transform="translate(298,602)"/>
<path d="M0 0 C0.66 0 1.32 0 2 0 C2 0.66 2 1.32 2 2 C1.34 2 0.68 2 0 2 C0 1.34 0 0.68 0 0 Z " fill="#FF0000" transform="translate(825,598)"/>
<path d="M0 0 C1 4 1 4 1 4 Z " fill="#FF0000" transform="translate(379,556)"/>
<path d="M0 0 C0.99 0.33 1.98 0.66 3 1 C2.01 1 1.02 1 0 1 C0 0.67 0 0.34 0 0 Z " fill="#FF0000" transform="translate(491,532)"/>
<path d="M0 0 C0.66 0 1.32 0 2 0 C2 0.66 2 1.32 2 2 C1.34 2 0.68 2 0 2 C0 1.34 0 0.68 0 0 Z " fill="#FF0000" transform="translate(841,442)"/>
<path d="M0 0 C0.66 0 1.32 0 2 0 C2 0.66 2 1.32 2 2 C1.34 2 0.68 2 0 2 C0 1.34 0 0.68 0 0 Z " fill="#FF0000" transform="translate(833,442)"/>
<path d="M0 0 C0.66 0 1.32 0 2 0 C2 0.66 2 1.32 2 2 C1.34 2 0.68 2 0 2 C0 1.34 0 0.68 0 0 Z " fill="#FF0000" transform="translate(835,439)"/>
<path d="M0 0 C0.66 0 1.32 0 2 0 C2 0.66 2 1.32 2 2 C1.34 2 0.68 2 0 2 C0 1.34 0 0.68 0 0 Z " fill="#000000" transform="translate(639,329)"/>
<path d="M0 0 C1 4 1 4 1 4 Z " fill="#FF0000" transform="translate(516,299)"/>
<path d="M0 0 C0.33 0.66 0.66 1.32 1 2 C0.34 1.67 -0.32 1.34 -1 1 C-0.67 0.67 -0.34 0.34 0 0 Z " fill="#000000" transform="translate(1228,903)"/>
<path d="M0 0 C0.33 0.66 0.66 1.32 1 2 C0.34 1.67 -0.32 1.34 -1 1 C-0.67 0.67 -0.34 0.34 0 0 Z " fill="#000000" transform="translate(1230,901)"/>
<path d="M0 0 C0.66 0 1.32 0 2 0 C1.67 0.66 1.34 1.32 1 2 C0.67 1.34 0.34 0.68 0 0 Z " fill="#000000" transform="translate(1227,895)"/>
<path d="" fill="#FF3800" transform="translate(0,0)"/>
<path d="M0 0 C3 1 3 1 3 1 Z " fill="#FF0000" transform="translate(876,733)"/>
<path d="" fill="#FF0000" transform="translate(0,0)"/>
<path d="" fill="#FF0000" transform="translate(0,0)"/>
<path d="" fill="#FF0000" transform="translate(0,0)"/>
<path d="M0 0 C0.99 0.5 0.99 0.5 2 1 C1.01 1.5 1.01 1.5 0 2 C0 1.34 0 0.68 0 0 Z " fill="#FF0000" transform="translate(833,633)"/>
<path d="" fill="#FF0000" transform="translate(0,0)"/>
<path d="" fill="#FF0000" transform="translate(0,0)"/>
<path d="" fill="#FF0000" transform="translate(0,0)"/>
<path d="M0 0 C0.66 0 1.32 0 2 0 C1.67 0.66 1.34 1.32 1 2 C0.67 1.34 0.34 0.68 0 0 Z " fill="#FF0000" transform="translate(839,605)"/>
<path d="" fill="#FF0000" transform="translate(0,0)"/>
<path d="" fill="#FF0000" transform="translate(0,0)"/>
<path d="M0 0 C0.99 0.5 0.99 0.5 2 1 C1.01 1.5 1.01 1.5 0 2 C0 1.34 0 0.68 0 0 Z " fill="#000000" transform="translate(1219,548)"/>
<path d="" fill="#000000" transform="translate(0,0)"/>
<path d="M0 0 C0.33 0.66 0.66 1.32 1 2 C0.34 1.67 -0.32 1.34 -1 1 C-0.67 0.67 -0.34 0.34 0 0 Z " fill="#FF0000" transform="translate(471,522)"/>
<path d="M0 0 C0.66 0.66 1.32 1.32 2 2 C1.34 2 0.68 2 0 2 C0 1.34 0 0.68 0 0 Z " fill="#FF0000" transform="translate(250,451)"/>
<path d="" fill="#000000" transform="translate(0,0)"/>
<path d="" fill="#000000" transform="translate(0,0)"/>
<path d="M0 0 C2 1 2 1 2 1 Z " fill="#E51900" transform="translate(1083,984)"/>
<path d="" fill="#FF0000" transform="translate(0,0)"/>
<path d="" fill="#FF0000" transform="translate(0,0)"/>
<path d="" fill="#FF0000" transform="translate(0,0)"/>
<path d="" fill="#000000" transform="translate(0,0)"/>
<path d="" fill="#FF0000" transform="translate(0,0)"/>
<path d="M0 0 C2 1 2 1 2 1 Z " fill="#000000" transform="translate(1227,912)"/>
<path d="M0 0 C2 1 2 1 2 1 Z " fill="#000000" transform="translate(1227,910)"/>
<path d="M0 0 C2 1 2 1 2 1 Z " fill="#000000" transform="translate(1225,906)"/>
<path d="M0 0 C2 1 2 1 2 1 Z " fill="#000000" transform="translate(1227,901)"/>
<path d="M0 0 C2 1 2 1 2 1 Z " fill="#DF1500" transform="translate(286,836)"/>
<path d="M0 0 C2 1 2 1 2 1 Z " fill="#FF1500" transform="translate(284,835)"/>
<path d="" fill="#000000" transform="translate(0,0)"/>
<path d="M0 0 C2 1 2 1 2 1 Z " fill="#FF0000" transform="translate(1122,805)"/>
<path d="" fill="#FF1F00" transform="translate(0,0)"/>
<path d="M0 0 C2 1 2 1 2 1 Z " fill="#FF0000" transform="translate(1083,745)"/>
<path d="M0 0 C2 1 2 1 2 1 Z " fill="#FF0000" transform="translate(1081,744)"/>
<path d="M0 0 C2 1 2 1 2 1 Z " fill="#FF0000" transform="translate(1079,743)"/>
<path d="M0 0 C2 1 2 1 2 1 Z " fill="#FF0000" transform="translate(1076,742)"/>
<path d="M0 0 C2 1 2 1 2 1 Z " fill="#FF0000" transform="translate(905,739)"/>
<path d="" fill="#000000" transform="translate(0,0)"/>
<path d="" fill="#000000" transform="translate(0,0)"/>
<path d="M0 0 C2 1 2 1 2 1 Z " fill="#FF0000" transform="translate(860,726)"/>
<path d="M0 0 C2 1 2 1 2 1 Z " fill="#FF0000" transform="translate(858,725)"/>
<path d="M0 0 C2 1 2 1 2 1 Z " fill="#FF0000" transform="translate(856,724)"/>
<path d="M0 0 C2 1 2 1 2 1 Z " fill="#FF0000" transform="translate(854,723)"/>
<path d="M0 0 C2 1 2 1 2 1 Z " fill="#FF0000" transform="translate(852,722)"/>
<path d="M0 0 C2 1 2 1 2 1 Z " fill="#FF0000" transform="translate(850,721)"/>
<path d="M0 0 C2 1 2 1 2 1 Z " fill="#FF0000" transform="translate(847,719)"/>
<path d="M0 0 C2 1 2 1 2 1 Z " fill="#FF0000" transform="translate(1118,684)"/>
<path d="" fill="#FF0000" transform="translate(0,0)"/>
<path d="" fill="#FF0000" transform="translate(0,0)"/>
<path d="" fill="#FF0000" transform="translate(0,0)"/>
<path d="" fill="#FF0000" transform="translate(0,0)"/>
<path d="" fill="#FF0000" transform="translate(0,0)"/>
<path d="M0 0 C2 1 2 1 2 1 Z " fill="#FF0000" transform="translate(827,644)"/>
<path d="" fill="#FF0000" transform="translate(0,0)"/>
<path d="M0 0 C2 1 2 1 2 1 Z " fill="#FF0000" transform="translate(839,636)"/>
<path d="M0 0 C2 1 2 1 2 1 Z " fill="#FF0000" transform="translate(833,636)"/>
<path d="M0 0 C2 1 2 1 2 1 Z " fill="#FF0000" transform="translate(1083,635)"/>
<path d="M0 0 C2 1 2 1 2 1 Z " fill="#FF0000" transform="translate(1089,632)"/>
<path d="" fill="#FF2A00" transform="translate(0,0)"/>
<path d="" fill="#FF0000" transform="translate(0,0)"/>
<path d="M0 0 C2 1 2 1 2 1 Z " fill="#FF0000" transform="translate(841,628)"/>
<path d="" fill="#FF0000" transform="translate(0,0)"/>
<path d="M0 0 C2 1 2 1 2 1 Z " fill="#FF0000" transform="translate(839,622)"/>
<path d="" fill="#FF0000" transform="translate(0,0)"/>
<path d="" fill="#FF0000" transform="translate(0,0)"/>
<path d="M0 0 C2 1 2 1 2 1 Z " fill="#FF0000" transform="translate(470,610)"/>
<path d="M0 0 C2 1 2 1 2 1 Z " fill="#FF0000" transform="translate(282,609)"/>
<path d="M0 0 C2 1 2 1 2 1 Z " fill="#FF0000" transform="translate(467,608)"/>
<path d="M0 0 C2 1 2 1 2 1 Z " fill="#FF0000" transform="translate(465,607)"/>
<path d="M0 0 C2 1 2 1 2 1 Z " fill="#FF0000" transform="translate(287,606)"/>
<path d="M0 0 C2 1 2 1 2 1 Z " fill="#FF0000" transform="translate(289,605)"/>
<path d="M0 0 C2 1 2 1 2 1 Z " fill="#FF0000" transform="translate(831,604)"/>
<path d="M0 0 C2 1 2 1 2 1 Z " fill="#FF0000" transform="translate(292,604)"/>
<path d="M0 0 C2 1 2 1 2 1 Z " fill="#FF0000" transform="translate(829,600)"/>
<path d="M0 0 C2 1 2 1 2 1 Z " fill="#FF0000" transform="translate(829,598)"/>
<path d="" fill="#FF0000" transform="translate(0,0)"/>
<path d="" fill="#FF0000" transform="translate(0,0)"/>
<path d="" fill="#FF0000" transform="translate(0,0)"/>
<path d="" fill="#FF0000" transform="translate(0,0)"/>
<path d="" fill="#FF0000" transform="translate(0,0)"/>
<path d="" fill="#FF0000" transform="translate(0,0)"/>
<path d="" fill="#FF0000" transform="translate(0,0)"/>
<path d="" fill="#FF0000" transform="translate(0,0)"/>
<path d="" fill="#FF0000" transform="translate(0,0)"/>
<path d="" fill="#FF0000" transform="translate(0,0)"/>
<path d="" fill="#FF0000" transform="translate(0,0)"/>
<path d="M0 0 C2 1 2 1 2 1 Z " fill="#000000" transform="translate(1221,549)"/>
<path d="M0 0 C2 1 2 1 2 1 Z " fill="#000000" transform="translate(1221,547)"/>
<path d="M0 0 C2 1 2 1 2 1 Z " fill="#000000" transform="translate(1223,545)"/>
<path d="" fill="#000000" transform="translate(0,0)"/>
<path d="M0 0 C2 1 2 1 2 1 Z " fill="#000000" transform="translate(1223,539)"/>
<path d="" fill="#FF0000" transform="translate(0,0)"/>
<path d="M0 0 C2 1 2 1 2 1 Z " fill="#000000" transform="translate(1221,531)"/>
<path d="M0 0 C2 1 2 1 2 1 Z " fill="#FF0000" transform="translate(489,531)"/>
<path d="M0 0 C2 1 2 1 2 1 Z " fill="#FF1F00" transform="translate(709,528)"/>
<path d="M0 0 C2 1 2 1 2 1 Z " fill="#FF0000" transform="translate(481,526)"/>
<path d="M0 0 C2 1 2 1 2 1 Z " fill="#000000" transform="translate(1229,465)"/>
<path d="M0 0 C2 1 2 1 2 1 Z " fill="#FF0000" transform="translate(253,462)"/>
<path d="M0 0 C2 1 2 1 2 1 Z " fill="#FF0000" transform="translate(251,459)"/>
<path d="M0 0 C2 1 2 1 2 1 Z " fill="#000000" transform="translate(1229,458)"/>
<path d="M0 0 C2 1 2 1 2 1 Z " fill="#FF2A00" transform="translate(1089,403)"/>
<path d="M0 0 C2 1 2 1 2 1 Z " fill="#FF1F00" transform="translate(1087,402)"/>
<path d="M0 0 C2 1 2 1 2 1 Z " fill="#FF1F00" transform="translate(1085,401)"/>
<path d="" fill="#000000" transform="translate(0,0)"/>
<path d="" fill="#000000" transform="translate(0,0)"/>
<path d="M0 0 C2 1 2 1 2 1 Z " fill="#FF0000" transform="translate(290,256)"/>
<path d="M0 0 C2 1 2 1 2 1 Z " fill="#000000" transform="translate(1229,249)"/>
<path d="M0 0 C2 1 2 1 2 1 Z " fill="#000000" transform="translate(1229,120)"/>
<path d="M0 0 C2 1 2 1 2 1 Z " fill="#000000" transform="translate(1229,118)"/>
<path d="" fill="#000000" transform="translate(0,0)"/>
<path d="" fill="#FF0000" transform="translate(0,0)"/>
<path d="" fill="#FF0000" transform="translate(0,0)"/>
<path d="" fill="#000000" transform="translate(0,0)"/>
<path d="" fill="#FF5500" transform="translate(0,0)"/>
<path d="" fill="#FF3F00" transform="translate(0,0)"/>
<path d="" fill="#AA0000" transform="translate(0,0)"/>
<path d="" fill="#FF0000" transform="translate(0,0)"/>
<path d="" fill="#FF0000" transform="translate(0,0)"/>
<path d="" fill="#FF0000" transform="translate(0,0)"/>
<path d="" fill="#000000" transform="translate(0,0)"/>
<path d="" fill="#000000" transform="translate(0,0)"/>
<path d="" fill="#000000" transform="translate(0,0)"/>
<path d="" fill="#000000" transform="translate(0,0)"/>
<path d="" fill="#000000" transform="translate(0,0)"/>
<path d="" fill="#000000" transform="translate(0,0)"/>
<path d="" fill="#000000" transform="translate(0,0)"/>
<path d="" fill="#000000" transform="translate(0,0)"/>
<path d="" fill="#FF0000" transform="translate(0,0)"/>
<path d="" fill="#FF0000" transform="translate(0,0)"/>
<path d="" fill="#CC3300" transform="translate(0,0)"/>
<path d="" fill="#000000" transform="translate(0,0)"/>
<path d="" fill="#FF0000" transform="translate(0,0)"/>
<path d="" fill="#FF0000" transform="translate(0,0)"/>
<path d="" fill="#FF0000" transform="translate(0,0)"/>
<path d="" fill="#FF0000" transform="translate(0,0)"/>
<path d="" fill="#FF0000" transform="translate(0,0)"/>
<path d="" fill="#FF5500" transform="translate(0,0)"/>
<path d="" fill="#FF0000" transform="translate(0,0)"/>
<path d="" fill="#FF0000" transform="translate(0,0)"/>
<path d="" fill="#FF0000" transform="translate(0,0)"/>
<path d="" fill="#FF0000" transform="translate(0,0)"/>
<path d="" fill="#FF0000" transform="translate(0,0)"/>
<path d="" fill="#000000" transform="translate(0,0)"/>
<path d="" fill="#FF0000" transform="translate(0,0)"/>
<path d="" fill="#FF0000" transform="translate(0,0)"/>
<path d="" fill="#FF0000" transform="translate(0,0)"/>
<path d="" fill="#FF0000" transform="translate(0,0)"/>
<path d="" fill="#FF0000" transform="translate(0,0)"/>
<path d="" fill="#000000" transform="translate(0,0)"/>
<path d="" fill="#FF0000" transform="translate(0,0)"/>
<path d="" fill="#FF0000" transform="translate(0,0)"/>
<path d="" fill="#FF0000" transform="translate(0,0)"/>
<path d="" fill="#000000" transform="translate(0,0)"/>
<path d="" fill="#000000" transform="translate(0,0)"/>
<path d="" fill="#BF0000" transform="translate(0,0)"/>
<path d="" fill="#BF0000" transform="translate(0,0)"/>
<path d="" fill="#FF3300" transform="translate(0,0)"/>
<path d="" fill="#FF3F00" transform="translate(0,0)"/>
<path d="" fill="#FF0000" transform="translate(0,0)"/>
<path d="" fill="#FF0000" transform="translate(0,0)"/>
<path d="" fill="#FF0000" transform="translate(0,0)"/>
<path d="" fill="#FF0000" transform="translate(0,0)"/>
<path d="" fill="#FF0000" transform="translate(0,0)"/>
<path d="" fill="#FF0000" transform="translate(0,0)"/>
<path d="" fill="#FF0000" transform="translate(0,0)"/>
<path d="" fill="#FF0000" transform="translate(0,0)"/>
<path d="" fill="#FF0000" transform="translate(0,0)"/>
<path d="" fill="#FF0000" transform="translate(0,0)"/>
<path d="" fill="#FF0000" transform="translate(0,0)"/>
<path d="" fill="#FF0000" transform="translate(0,0)"/>
<path d="" fill="#FF0000" transform="translate(0,0)"/>
<path d="" fill="#FF0000" transform="translate(0,0)"/>
<path d="" fill="#FF0000" transform="translate(0,0)"/>
<path d="" fill="#FF0000" transform="translate(0,0)"/>
<path d="" fill="#FF0000" transform="translate(0,0)"/>
<path d="" fill="#FF0000" transform="translate(0,0)"/>
<path d="" fill="#FF0000" transform="translate(0,0)"/>
<path d="" fill="#FF0000" transform="translate(0,0)"/>
<path d="" fill="#FF0000" transform="translate(0,0)"/>
<path d="" fill="#FF0000" transform="translate(0,0)"/>
<path d="" fill="#FF0000" transform="translate(0,0)"/>
<path d="" fill="#FF0000" transform="translate(0,0)"/>
<path d="" fill="#FF0000" transform="translate(0,0)"/>
<path d="" fill="#FF0000" transform="translate(0,0)"/>
<path d="" fill="#FF0000" transform="translate(0,0)"/>
<path d="" fill="#FF0000" transform="translate(0,0)"/>
<path d="" fill="#FF0000" transform="translate(0,0)"/>
<path d="" fill="#FF0000" transform="translate(0,0)"/>
<path d="" fill="#FF0000" transform="translate(0,0)"/>
<path d="" fill="#FF0000" transform="translate(0,0)"/>
<path d="" fill="#FF0000" transform="translate(0,0)"/>
<path d="" fill="#000000" transform="translate(0,0)"/>
<path d="" fill="#FF0000" transform="translate(0,0)"/>
<path d="" fill="#FF0000" transform="translate(0,0)"/>
<path d="" fill="#FF0000" transform="translate(0,0)"/>
<path d="" fill="#000000" transform="translate(0,0)"/>
<path d="" fill="#FF0000" transform="translate(0,0)"/>
<path d="" fill="#FF0000" transform="translate(0,0)"/>
<path d="" fill="#FF0000" transform="translate(0,0)"/>
<path d="" fill="#FF0000" transform="translate(0,0)"/>
<path d="" fill="#FF0000" transform="translate(0,0)"/>
<path d="" fill="#FF0000" transform="translate(0,0)"/>
<path d="" fill="#7F0000" transform="translate(0,0)"/>
<path d="" fill="#FF0000" transform="translate(0,0)"/>
<path d="" fill="#FF0000" transform="translate(0,0)"/>
<path d="" fill="#FF0000" transform="translate(0,0)"/>
<path d="" fill="#FF0000" transform="translate(0,0)"/>
<path d="" fill="#FF0000" transform="translate(0,0)"/>
<path d="" fill="#FF0000" transform="translate(0,0)"/>
<path d="" fill="#FF0000" transform="translate(0,0)"/>
<path d="" fill="#FF0000" transform="translate(0,0)"/>
<path d="" fill="#FF0000" transform="translate(0,0)"/>
<path d="" fill="#FF0000" transform="translate(0,0)"/>
<path d="" fill="#FF0000" transform="translate(0,0)"/>
<path d="" fill="#000000" transform="translate(0,0)"/>
<path d="" fill="#FF0000" transform="translate(0,0)"/>
<path d="" fill="#FF0000" transform="translate(0,0)"/>
<path d="" fill="#FF0000" transform="translate(0,0)"/>
<path d="" fill="#FF0000" transform="translate(0,0)"/>
<path d="" fill="#FF0000" transform="translate(0,0)"/>
<path d="" fill="#FF0000" transform="translate(0,0)"/>
<path d="" fill="#FF0000" transform="translate(0,0)"/>
<path d="" fill="#FF0000" transform="translate(0,0)"/>
<path d="" fill="#FF0000" transform="translate(0,0)"/>
<path d="" fill="#FF0000" transform="translate(0,0)"/>
<path d="" fill="#FF2A00" transform="translate(0,0)"/>
<path d="" fill="#FF0000" transform="translate(0,0)"/>
<path d="" fill="#FF3300" transform="translate(0,0)"/>
<path d="" fill="#FF0000" transform="translate(0,0)"/>
<path d="" fill="#FF3300" transform="translate(0,0)"/>
<path d="" fill="#FF0000" transform="translate(0,0)"/>
<path d="" fill="#FF0000" transform="translate(0,0)"/>
<path d="" fill="#FF0000" transform="translate(0,0)"/>
<path d="" fill="#FF0000" transform="translate(0,0)"/>
<path d="" fill="#FF0000" transform="translate(0,0)"/>
<path d="" fill="#000000" transform="translate(0,0)"/>
<path d="" fill="#FF0000" transform="translate(0,0)"/>
<path d="" fill="#FF0000" transform="translate(0,0)"/>
<path d="" fill="#FF0000" transform="translate(0,0)"/>
<path d="" fill="#000000" transform="translate(0,0)"/>
<path d="" fill="#FF0000" transform="translate(0,0)"/>
<path d="" fill="#FF0000" transform="translate(0,0)"/>
<path d="" fill="#FF0000" transform="translate(0,0)"/>
<path d="" fill="#000000" transform="translate(0,0)"/>
<path d="" fill="#FF0000" transform="translate(0,0)"/>
<path d="" fill="#FF0000" transform="translate(0,0)"/>
<path d="" fill="#FF0000" transform="translate(0,0)"/>
<path d="" fill="#FF0000" transform="translate(0,0)"/>
<path d="" fill="#FF0000" transform="translate(0,0)"/>
<path d="" fill="#FF0000" transform="translate(0,0)"/>
<path d="" fill="#FF0000" transform="translate(0,0)"/>
<path d="" fill="#FF0000" transform="translate(0,0)"/>
<path d="" fill="#FF0000" transform="translate(0,0)"/>
<path d="" fill="#FF0000" transform="translate(0,0)"/>
<path d="" fill="#FF0000" transform="translate(0,0)"/>
<path d="" fill="#FF0000" transform="translate(0,0)"/>
<path d="" fill="#FF0000" transform="translate(0,0)"/>
<path d="" fill="#FF0000" transform="translate(0,0)"/>
<path d="" fill="#FF0000" transform="translate(0,0)"/>
<path d="" fill="#FF0000" transform="translate(0,0)"/>
<path d="" fill="#FF0000" transform="translate(0,0)"/>
<path d="" fill="#FF0000" transform="translate(0,0)"/>
<path d="" fill="#FF0000" transform="translate(0,0)"/>
<path d="" fill="#FF0000" transform="translate(0,0)"/>
<path d="" fill="#000000" transform="translate(0,0)"/>
<path d="" fill="#FF0000" transform="translate(0,0)"/>
<path d="" fill="#000000" transform="translate(0,0)"/>
<path d="" fill="#000000" transform="translate(0,0)"/>
<path d="" fill="#FF0000" transform="translate(0,0)"/>
<path d="" fill="#FF0000" transform="translate(0,0)"/>
<path d="" fill="#000000" transform="translate(0,0)"/>
<path d="" fill="#000000" transform="translate(0,0)"/>
</svg>
